<mxfile host="app.diagrams.net" modified="2023-05-05T20:13:30.361Z" agent="Mozilla/5.0 (Windows NT 10.0; Win64; x64) AppleWebKit/537.36 (KHTML, like Gecko) Chrome/112.0.0.0 Safari/537.36" etag="fbu3E7DrLQlrSQOZYdHI" version="21.2.9" type="github">
  <diagram id="C5RBs43oDa-KdzZeNtuy" name="Page-1">
    <mxGraphModel dx="880" dy="484" grid="1" gridSize="10" guides="1" tooltips="1" connect="1" arrows="1" fold="1" page="1" pageScale="1" pageWidth="827" pageHeight="1169" math="0" shadow="0">
      <root>
        <mxCell id="WIyWlLk6GJQsqaUBKTNV-0" />
        <mxCell id="WIyWlLk6GJQsqaUBKTNV-1" parent="WIyWlLk6GJQsqaUBKTNV-0" />
        <mxCell id="WIyWlLk6GJQsqaUBKTNV-2" value="" style="rounded=0;html=1;jettySize=auto;orthogonalLoop=1;fontSize=11;endArrow=block;endFill=0;endSize=8;strokeWidth=1;shadow=0;labelBackgroundColor=none;edgeStyle=orthogonalEdgeStyle;" parent="WIyWlLk6GJQsqaUBKTNV-1" edge="1">
          <mxGeometry relative="1" as="geometry">
            <mxPoint x="220" y="120" as="sourcePoint" />
            <mxPoint x="220" y="170" as="targetPoint" />
          </mxGeometry>
        </mxCell>
        <mxCell id="WIyWlLk6GJQsqaUBKTNV-4" value="Yes" style="rounded=0;html=1;jettySize=auto;orthogonalLoop=1;fontSize=11;endArrow=block;endFill=0;endSize=8;strokeWidth=1;shadow=0;labelBackgroundColor=none;edgeStyle=orthogonalEdgeStyle;" parent="WIyWlLk6GJQsqaUBKTNV-1" target="WIyWlLk6GJQsqaUBKTNV-10" edge="1">
          <mxGeometry y="20" relative="1" as="geometry">
            <mxPoint as="offset" />
            <mxPoint x="220" y="250" as="sourcePoint" />
          </mxGeometry>
        </mxCell>
        <mxCell id="WIyWlLk6GJQsqaUBKTNV-5" value="No" style="edgeStyle=orthogonalEdgeStyle;rounded=0;html=1;jettySize=auto;orthogonalLoop=1;fontSize=11;endArrow=block;endFill=0;endSize=8;strokeWidth=1;shadow=0;labelBackgroundColor=none;" parent="WIyWlLk6GJQsqaUBKTNV-1" edge="1">
          <mxGeometry y="10" relative="1" as="geometry">
            <mxPoint as="offset" />
            <mxPoint x="270" y="210" as="sourcePoint" />
            <mxPoint x="320" y="210" as="targetPoint" />
          </mxGeometry>
        </mxCell>
        <mxCell id="WIyWlLk6GJQsqaUBKTNV-8" value="No" style="rounded=0;html=1;jettySize=auto;orthogonalLoop=1;fontSize=11;endArrow=block;endFill=0;endSize=8;strokeWidth=1;shadow=0;labelBackgroundColor=none;edgeStyle=orthogonalEdgeStyle;" parent="WIyWlLk6GJQsqaUBKTNV-1" source="WIyWlLk6GJQsqaUBKTNV-10" target="WIyWlLk6GJQsqaUBKTNV-11" edge="1">
          <mxGeometry x="0.3333" y="20" relative="1" as="geometry">
            <mxPoint as="offset" />
          </mxGeometry>
        </mxCell>
        <mxCell id="WIyWlLk6GJQsqaUBKTNV-9" value="Yes" style="edgeStyle=orthogonalEdgeStyle;rounded=0;html=1;jettySize=auto;orthogonalLoop=1;fontSize=11;endArrow=block;endFill=0;endSize=8;strokeWidth=1;shadow=0;labelBackgroundColor=none;" parent="WIyWlLk6GJQsqaUBKTNV-1" source="WIyWlLk6GJQsqaUBKTNV-10" target="WIyWlLk6GJQsqaUBKTNV-12" edge="1">
          <mxGeometry y="10" relative="1" as="geometry">
            <mxPoint as="offset" />
          </mxGeometry>
        </mxCell>
        <mxCell id="WIyWlLk6GJQsqaUBKTNV-10" value="Bulb&lt;br&gt;burned out?" style="rhombus;whiteSpace=wrap;html=1;shadow=0;fontFamily=Helvetica;fontSize=12;align=center;strokeWidth=1;spacing=6;spacingTop=-4;" parent="WIyWlLk6GJQsqaUBKTNV-1" vertex="1">
          <mxGeometry x="170" y="290" width="100" height="80" as="geometry" />
        </mxCell>
        <mxCell id="WIyWlLk6GJQsqaUBKTNV-11" value="Repair Lamp" style="rounded=1;whiteSpace=wrap;html=1;fontSize=12;glass=0;strokeWidth=1;shadow=0;" parent="WIyWlLk6GJQsqaUBKTNV-1" vertex="1">
          <mxGeometry x="160" y="430" width="120" height="40" as="geometry" />
        </mxCell>
        <mxCell id="WIyWlLk6GJQsqaUBKTNV-12" value="Replace Bulb" style="rounded=1;whiteSpace=wrap;html=1;fontSize=12;glass=0;strokeWidth=1;shadow=0;" parent="WIyWlLk6GJQsqaUBKTNV-1" vertex="1">
          <mxGeometry x="320" y="310" width="120" height="40" as="geometry" />
        </mxCell>
        <mxCell id="CJ1JmY6DbRSH0CXdUCkE-0" value="" style="shape=image;verticalLabelPosition=bottom;labelBackgroundColor=#ffffff;verticalAlign=top;aspect=fixed;imageAspect=0;image=data:image/svg+xml,PHN2ZyB4bWxuczpjYz0iaHR0cDovL2NyZWF0aXZlY29tbW9ucy5vcmcvbnMjIiB4bWxuczpkYz0iaHR0cDovL3B1cmwub3JnL2RjL2VsZW1lbnRzLzEuMS8iIHhtbG5zOmlua3NjYXBlPSJodHRwOi8vd3d3Lmlua3NjYXBlLm9yZy9uYW1lc3BhY2VzL2lua3NjYXBlIiB4bWxuczpyZGY9Imh0dHA6Ly93d3cudzMub3JnLzE5OTkvMDIvMjItcmRmLXN5bnRheC1ucyMiIHhtbG5zOnNvZGlwb2RpPSJodHRwOi8vc29kaXBvZGkuc291cmNlZm9yZ2UubmV0L0RURC9zb2RpcG9kaS0wLmR0ZCIgeG1sbnM6c3ZnPSJodHRwOi8vd3d3LnczLm9yZy8yMDAwL3N2ZyIgeG1sbnM9Imh0dHA6Ly93d3cudzMub3JnLzIwMDAvc3ZnIiB4bWxuczp4bGluaz0iaHR0cDovL3d3dy53My5vcmcvMTk5OS94bGluayIgdmVyc2lvbj0iMS4xIiBpZD0ic3ZnMTQ1MDA4IiBpbmtzY2FwZTp2ZXJzaW9uPSIwLjkyLjMgKDI0MDU1NDYsIDIwMTgtMDMtMTEpIiBzb2RpcG9kaTpkb2NuYW1lPSJjc3Muc3ZnIiB4PSIwcHgiIHk9IjBweCIgdmlld0JveD0iMCAwIDI2LjQxIDM3LjI4IiBzdHlsZT0iZW5hYmxlLWJhY2tncm91bmQ6bmV3IDAgMCAyNi40MSAzNy4yODsiIHhtbDpzcGFjZT0icHJlc2VydmUiPiYjeGE7PHNvZGlwb2RpOm5hbWVkdmlldyBib3JkZXJjb2xvcj0iIzY2NjY2NiIgYm9yZGVyb3BhY2l0eT0iMSIgZml0LW1hcmdpbi1ib3R0b209IjAiIGZpdC1tYXJnaW4tbGVmdD0iMCIgZml0LW1hcmdpbi1yaWdodD0iMCIgZml0LW1hcmdpbi10b3A9IjAiIGdyaWR0b2xlcmFuY2U9IjEwIiBndWlkZXRvbGVyYW5jZT0iMTAiIGlkPSJuYW1lZHZpZXcxNDUwMTAiIGlua3NjYXBlOmN1cnJlbnQtbGF5ZXI9InN2ZzE0NTAwOCIgaW5rc2NhcGU6Y3g9IjE3LjYwODE1OSIgaW5rc2NhcGU6Y3k9IjI0Ljg1MTIzNiIgaW5rc2NhcGU6cGFnZW9wYWNpdHk9IjAiIGlua3NjYXBlOnBhZ2VzaGFkb3c9IjIiIGlua3NjYXBlOndpbmRvdy1oZWlnaHQ9IjEwMTciIGlua3NjYXBlOndpbmRvdy1tYXhpbWl6ZWQ9IjEiIGlua3NjYXBlOndpbmRvdy13aWR0aD0iMTkyMCIgaW5rc2NhcGU6d2luZG93LXg9Ii04IiBpbmtzY2FwZTp3aW5kb3cteT0iLTgiIGlua3NjYXBlOnpvb209IjE2Ljc2NjI2NyIgb2JqZWN0dG9sZXJhbmNlPSIxMCIgcGFnZWNvbG9yPSIjZmZmZmZmIiBzaG93Z3JpZD0iZmFsc2UiPiYjeGE7CTwvc29kaXBvZGk6bmFtZWR2aWV3PiYjeGE7PGcgaWQ9ImcxNDUwMDYiIHRyYW5zZm9ybT0idHJhbnNsYXRlKC0wLjc1LC0wLjc0ODUpIj4mI3hhOwk8dGl0bGUgaWQ9InRpdGxlMTQ0OTQ1Ij5QYWdlLTE8L3RpdGxlPiYjeGE7CTxnIGlkPSJncm91cDExMzQtMSIgdHJhbnNmb3JtPSJ0cmFuc2xhdGUoMC43NSwtMC43NSkiPiYjeGE7CQk8dGl0bGUgaWQ9InRpdGxlMTQ0OTQ3Ij5DU1M8L3RpdGxlPiYjeGE7CQk8ZyBpZD0iZ3JvdXAxMTM1LTIiIHRyYW5zZm9ybT0idHJhbnNsYXRlKDUuNjI3MjQsLTMyLjI1MTUpIj4mI3hhOwkJCTx0aXRsZSBpZD0idGl0bGUxNDQ5NDkiPlNoZWV0LjExMzU8L3RpdGxlPiYjeGE7CQkJPGcgaWQ9InNoYXBlMTEzNi0zIiB0cmFuc2Zvcm09InRyYW5zbGF0ZSgxMC40NjIyKSI+JiN4YTsJCQkJPHRpdGxlIGlkPSJ0aXRsZTE0NDk1MSI+U2hlZXQuMTEzNjwvdGl0bGU+JiN4YTsJCQkJPHBhdGggaWQ9InBhdGgxNDQ5NTMiIGlua3NjYXBlOmNvbm5lY3Rvci1jdXJ2YXR1cmU9IjAiIHN0eWxlPSJmaWxsOiMxNTE1MTU7IiBkPSJNNC42MSwzNS4xM0gyLjQybDIuMjgsMi40OHYxLjE3SDBWMzcuNGgyLjI4ICAgICAgTDAsMzQuOTN2LTEuMThoNC42MVYzNS4xM3oiLz4mI3hhOwkJCTwvZz4mI3hhOwkJCTxnIGlkPSJzaGFwZTExMzctNSIgdHJhbnNmb3JtPSJ0cmFuc2xhdGUoNC45MjMxOCkiPiYjeGE7CQkJCTx0aXRsZSBpZD0idGl0bGUxNDQ5NTYiPlNoZWV0LjExMzc8L3RpdGxlPiYjeGE7CQkJCTxwYXRoIGlkPSJwYXRoMTQ0OTU4IiBpbmtzY2FwZTpjb25uZWN0b3ItY3VydmF0dXJlPSIwIiBzdHlsZT0iZmlsbDojMTUxNTE1OyIgZD0iTTQuNjEsMzUuMTNIMi40MmwyLjI4LDIuNDh2MS4xN0gwVjM3LjRoMi4yOCAgICAgIEwwLDM0Ljkzdi0xLjE4aDQuNjFWMzUuMTN6Ii8+JiN4YTsJCQk8L2c+JiN4YTsJCQk8ZyBpZD0ic2hhcGUxMTM4LTciPiYjeGE7CQkJCTx0aXRsZSBpZD0idGl0bGUxNDQ5NjEiPlNoZWV0LjExMzg8L3RpdGxlPiYjeGE7CQkJCTxwYXRoIGlkPSJwYXRoMTQ0OTYzIiBpbmtzY2FwZTpjb25uZWN0b3ItY3VydmF0dXJlPSIwIiBzdHlsZT0iZmlsbDojMTUxNTE1OyIgZD0iTTQuMDUsMzUuMTlIMS42OHYyLjE2aDIuMzd2MS40M0gwdi01LjAzaDQuMDUgICAgICBWMzUuMTl6Ii8+JiN4YTsJCQk8L2c+JiN4YTsJCTwvZz4mI3hhOwkJPGcgaWQ9InNoYXBlMTEzOS05Ij4mI3hhOwkJCTx0aXRsZSBpZD0idGl0bGUxNDQ5NjciPlNoZWV0LjExMzk8L3RpdGxlPiYjeGE7CQkJPHBhdGggaWQ9InBhdGgxNDQ5NjkiIGlua3NjYXBlOmNvbm5lY3Rvci1jdXJ2YXR1cmU9IjAiIHN0eWxlPSJmaWxsOiMxNjczQjY7IiBkPSJNMi40LDM1Ljc5TDAsOC44M2gyNi40MWwtMi40LDI2Ljk1bC0xMC44MiwzICAgICBMMi40LDM1Ljc5eiIvPiYjeGE7CQk8L2c+JiN4YTsJCTxnIGlkPSJzaGFwZTExNDAtMTEiIHRyYW5zZm9ybT0idHJhbnNsYXRlKDEzLjIwNjIsLTIuMjkxOSkiPiYjeGE7CQkJPHRpdGxlIGlkPSJ0aXRsZTE0NDk3MiI+U2hlZXQuMTE0MDwvdGl0bGU+JiN4YTsJCQk8cGF0aCBpZD0icGF0aDE0NDk3NCIgaW5rc2NhcGU6Y29ubmVjdG9yLWN1cnZhdHVyZT0iMCIgc3R5bGU9ImZpbGw6IzM1QTlEQjsiIGQ9Ik0wLDM4Ljc4bDguNzQtMi40MmwyLjA2LTIzLjAzSDBWMzguNzh6Ii8+JiN4YTsJCTwvZz4mI3hhOwkJPGcgaWQ9Imdyb3VwMTE0MS0xMyIgdHJhbnNmb3JtPSJ0cmFuc2xhdGUoNC45MzQ2MywtNS45NTA1NCkiPiYjeGE7CQkJPHRpdGxlIGlkPSJ0aXRsZTE0NDk3NyI+U2hlZXQuMTE0MTwvdGl0bGU+JiN4YTsJCQk8ZyBpZD0ic2hhcGUxMTQyLTE0IiB0cmFuc2Zvcm09InRyYW5zbGF0ZSg4LjI3MTQ4LC04LjcyNTQ5KSI+JiN4YTsJCQkJPHRpdGxlIGlkPSJ0aXRsZTE0NDk3OSI+U2hlZXQuMTE0MjwvdGl0bGU+JiN4YTsJCQkJPHBhdGggaWQ9InBhdGgxNDQ5ODEiIGlua3NjYXBlOmNvbm5lY3Rvci1jdXJ2YXR1cmU9IjAiIHN0eWxlPSJmaWxsOiNGRkZGRkY7IiBkPSJNMCwzNS40OGg0LjM4bDAuMy0zLjM5SDB2LTMuMzFoMC4wMWg4LjI4ICAgICAgbC0wLjA4LDAuODlMNy40LDM4Ljc4SDBWMzUuNDh6Ii8+JiN4YTsJCQk8L2c+JiN4YTsJCQk8ZyBpZD0ic2hhcGUxMTQzLTE2IiB0cmFuc2Zvcm09InRyYW5zbGF0ZSgxLjAzOTcxKSI+JiN4YTsJCQkJPHRpdGxlIGlkPSJ0aXRsZTE0NDk4NCI+U2hlZXQuMTE0MzwvdGl0bGU+JiN4YTsJCQkJPHBhdGggaWQ9InBhdGgxNDQ5ODYiIGlua3NjYXBlOmNvbm5lY3Rvci1jdXJ2YXR1cmU9IjAiIHN0eWxlPSJmaWxsOiNFQkVCRUI7IiBkPSJNNy4yNSwzNS4zNEg3LjI0bC0zLjY5LTAuOTlsLTAuMjMtMi42NEgxLjUzICAgICAgSDBsMC40Niw1LjE5bDYuNzgsMS44OGgwLjAxTDcuMjUsMzUuMzR6Ii8+JiN4YTsJCQk8L2c+JiN4YTsJCQk8ZyBpZD0ic2hhcGUxMTQ0LTE4IiB0cmFuc2Zvcm09InRyYW5zbGF0ZSg4LjI3OTgzLC0wLjAwMTY4NzExKSI+JiN4YTsJCQkJPHRpdGxlIGlkPSJ0aXRsZTE0NDk4OSI+U2hlZXQuMTE0NDwvdGl0bGU+JiN4YTsJCQkJPHBhdGggaWQ9InBhdGgxNDQ5OTEiIGlua3NjYXBlOmNvbm5lY3Rvci1jdXJ2YXR1cmU9IjAiIHN0eWxlPSJmaWxsOiNGRkZGRkY7IiBkPSJNNC4wOSwyOS45MmwtMC40LDQuNDNMMCwzNS4zNHYzLjQ0bDYuNzgtMS44OCAgICAgIGwwLjA1LTAuNTVsMC41Ny02LjQzSDQuMDl6Ii8+JiN4YTsJCQk8L2c+JiN4YTsJCQk8ZyBpZD0ic2hhcGUxMTQ1LTIwIiB0cmFuc2Zvcm09InRyYW5zbGF0ZSgwLC0xNS40MTc4KSI+JiN4YTsJCQkJPHRpdGxlIGlkPSJ0aXRsZTE0NDk5NCI+U2hlZXQuMTE0NTwvdGl0bGU+JiN4YTsJCQkJPHBhdGggaWQ9InBhdGgxNDQ5OTYiIGlua3NjYXBlOmNvbm5lY3Rvci1jdXJ2YXR1cmU9IjAiIHN0eWxlPSJmaWxsOiNFQkVCRUI7IiBkPSJNOC4yOCwzNS40OHYyLjA1djEuMjVsMCwwSDAuMzFIMC4zICAgICAgbC0wLjA3LTAuNzRsLTAuMTUtMS42OEwwLDM1LjQ4SDguMjh6Ii8+JiN4YTsJCQk8L2c+JiN4YTsJCQk8ZyBpZD0ic2hhcGUxMTQ2LTIyIiB0cmFuc2Zvcm09InRyYW5zbGF0ZSg0LjMzOTUzLC04LjcyNTA1KSI+JiN4YTsJCQkJPHRpdGxlIGlkPSJ0aXRsZTE0NDk5OSI+U2hlZXQuMTE0NjwvdGl0bGU+JiN4YTsJCQkJPHBhdGggaWQ9InBhdGgxNDUwMDEiIGlua3NjYXBlOmNvbm5lY3Rvci1jdXJ2YXR1cmU9IjAiIHN0eWxlPSJmaWxsOiNFQkVCRUI7IiBkPSJNMy45MywzNS40OHYyLjA1djEuMjVsMCwwSDAuMzFIMC4zICAgICAgbC0wLjA3LTAuNzRsLTAuMTUtMS42OEwwLDM1LjQ4SDMuOTN6Ii8+JiN4YTsJCQk8L2c+JiN4YTsJCTwvZz4mI3hhOwk8L2c+JiN4YTs8L2c+JiN4YTs8L3N2Zz4=;" vertex="1" parent="WIyWlLk6GJQsqaUBKTNV-1">
          <mxGeometry x="362.96" y="185.75" width="34.08" height="48.5" as="geometry" />
        </mxCell>
        <mxCell id="CJ1JmY6DbRSH0CXdUCkE-1" value="" style="shape=image;verticalLabelPosition=bottom;labelBackgroundColor=#ffffff;verticalAlign=top;aspect=fixed;imageAspect=0;image=data:image/svg+xml,PHN2ZyB4bWxuczpkYz0iaHR0cDovL3B1cmwub3JnL2RjL2VsZW1lbnRzLzEuMS8iIHhtbG5zOmNjPSJodHRwOi8vY3JlYXRpdmVjb21tb25zLm9yZy9ucyMiIHhtbG5zOnJkZj0iaHR0cDovL3d3dy53My5vcmcvMTk5OS8wMi8yMi1yZGYtc3ludGF4LW5zIyIgeG1sbnM6c3ZnPSJodHRwOi8vd3d3LnczLm9yZy8yMDAwL3N2ZyIgeG1sbnM9Imh0dHA6Ly93d3cudzMub3JnLzIwMDAvc3ZnIiB4bWxuczp4bGluaz0iaHR0cDovL3d3dy53My5vcmcvMTk5OS94bGluayIgeG1sbnM6c29kaXBvZGk9Imh0dHA6Ly9zb2RpcG9kaS5zb3VyY2Vmb3JnZS5uZXQvRFREL3NvZGlwb2RpLTAuZHRkIiB4bWxuczppbmtzY2FwZT0iaHR0cDovL3d3dy5pbmtzY2FwZS5vcmcvbmFtZXNwYWNlcy9pbmtzY2FwZSIgdmVyc2lvbj0iMS4xIiBpZD0iTGF5ZXJfMSIgeD0iMHB4IiB5PSIwcHgiIHZpZXdCb3g9IjAgMCA1MC44NDk5OTggNTEuMDkiIHhtbDpzcGFjZT0icHJlc2VydmUiIHNvZGlwb2RpOmRvY25hbWU9InZpc3VhbF9zdHVkaW9fY29kZS5zdmciIHdpZHRoPSI1MC44NDk5OTgiIGhlaWdodD0iNTEuMDkiIGlua3NjYXBlOnZlcnNpb249IjAuOTIuMyAoMjQwNTU0NiwgMjAxOC0wMy0xMSkiPjxtZXRhZGF0YSBpZD0ibWV0YWRhdGE0MzE4OSI+PHJkZjpSREY+PGNjOldvcmsgcmRmOmFib3V0PSIiPjxkYzpmb3JtYXQ+aW1hZ2Uvc3ZnK3htbDwvZGM6Zm9ybWF0PjxkYzp0eXBlIHJkZjpyZXNvdXJjZT0iaHR0cDovL3B1cmwub3JnL2RjL2RjbWl0eXBlL1N0aWxsSW1hZ2UiLz48ZGM6dGl0bGUvPjwvY2M6V29yaz48L3JkZjpSREY+PC9tZXRhZGF0YT48ZGVmcyBpZD0iZGVmczQzMTg3Ii8+PHNvZGlwb2RpOm5hbWVkdmlldyBwYWdlY29sb3I9IiNmZmZmZmYiIGJvcmRlcmNvbG9yPSIjNjY2NjY2IiBib3JkZXJvcGFjaXR5PSIxIiBvYmplY3R0b2xlcmFuY2U9IjEwIiBncmlkdG9sZXJhbmNlPSIxMCIgZ3VpZGV0b2xlcmFuY2U9IjEwIiBpbmtzY2FwZTpwYWdlb3BhY2l0eT0iMCIgaW5rc2NhcGU6cGFnZXNoYWRvdz0iMiIgaW5rc2NhcGU6d2luZG93LXdpZHRoPSIxOTIwIiBpbmtzY2FwZTp3aW5kb3ctaGVpZ2h0PSIxMDE3IiBpZD0ibmFtZWR2aWV3NDMxODUiIHNob3dncmlkPSJmYWxzZSIgZml0LW1hcmdpbi10b3A9IjAiIGZpdC1tYXJnaW4tbGVmdD0iMCIgZml0LW1hcmdpbi1yaWdodD0iMCIgZml0LW1hcmdpbi1ib3R0b209IjAiIGlua3NjYXBlOnpvb209IjEuMDMwMzAzIiBpbmtzY2FwZTpjeD0iLTYuNTU1IiBpbmtzY2FwZTpjeT0iLTI5Ni4wNyIgaW5rc2NhcGU6d2luZG93LXg9Ii04IiBpbmtzY2FwZTp3aW5kb3cteT0iLTgiIGlua3NjYXBlOndpbmRvdy1tYXhpbWl6ZWQ9IjEiIGlua3NjYXBlOmN1cnJlbnQtbGF5ZXI9IkxheWVyXzEiLz4mI3hhOyYjeGE7PGcgaWQ9Imc0MzE4MiIgdHJhbnNmb3JtPSJ0cmFuc2xhdGUoLTMwMy45MywtNzMuNTkpIj4mI3hhOwk8ZGVmcyBpZD0iZGVmczQzMTY3Ij4mI3hhOwkJPHJlY3QgaWQ9IlNWR0lEXzNfIiB4PSIzMDMuOTI5OTkiIHk9IjczLjU4OTk5NiIgd2lkdGg9IjUxLjI1IiBoZWlnaHQ9IjUxLjI1Ii8+JiN4YTsJPC9kZWZzPiYjeGE7CTxjbGlwUGF0aCBpZD0iU1ZHSURfNF8iPiYjeGE7CQk8dXNlIHhsaW5rOmhyZWY9IiNTVkdJRF8zXyIgc3R5bGU9Im92ZXJmbG93OnZpc2libGUiIGlkPSJ1c2U0MzE2OSIgeD0iMCIgeT0iMCIgd2lkdGg9IjEwMCUiIGhlaWdodD0iMTAwJSIvPiYjeGE7CTwvY2xpcFBhdGg+JiN4YTsJPGcgY2xpcC1wYXRoPSJ1cmwoI1NWR0lEXzRfKSIgaWQ9Imc0MzE4MCI+JiN4YTsJCTxkZWZzIGlkPSJkZWZzNDMxNzMiPiYjeGE7CQkJPHJlY3QgaWQ9IlNWR0lEXzVfIiB4PSIzMDMuOTI5OTkiIHk9IjczLjU4OTk5NiIgd2lkdGg9IjUxLjI1IiBoZWlnaHQ9IjUxLjI1Ii8+JiN4YTsJCTwvZGVmcz4mI3hhOwkJPGNsaXBQYXRoIGlkPSJTVkdJRF82XyI+JiN4YTsJCQk8dXNlIHhsaW5rOmhyZWY9IiNTVkdJRF81XyIgc3R5bGU9Im92ZXJmbG93OnZpc2libGUiIGlkPSJ1c2U0MzE3NSIgeD0iMCIgeT0iMCIgd2lkdGg9IjEwMCUiIGhlaWdodD0iMTAwJSIvPiYjeGE7CQk8L2NsaXBQYXRoPiYjeGE7CQk8cGF0aCBzdHlsZT0iZmlsbDojMDE3OWNiIiBkPSJtIDMwOS44NywxMDUuMDIgNi4yMywtNS42NiAtNi4yMywtNi4yMyBWIDEwNSBaIG0gMzEuNTEsMy4zIFYgODkuOTUgbCAtMTEuODksOS4xOSAxMS44Nyw5LjE3IGggMC4wMiB6IG0gLTE5LjM1LC0zLjQ0IC0xMi42LDkuNzggLTUuNSwtMi43IFYgODYuMzUgbCA1LjQ4LC0yLjc2IDEyLjUyLDkuODQgMTkuODIsLTE5Ljg0IDEzLjAzLDUuMjMgdiA0MC41OSBsIC0xMi45OCw1LjI3IHoiIGNsaXAtcGF0aD0idXJsKCNTVkdJRF82XykiIGlkPSJwYXRoNDMxNzgiIGlua3NjYXBlOmNvbm5lY3Rvci1jdXJ2YXR1cmU9IjAiLz4mI3hhOwk8L2c+JiN4YTs8L2c+JiN4YTs8L3N2Zz4=;" vertex="1" parent="WIyWlLk6GJQsqaUBKTNV-1">
          <mxGeometry x="180" y="60" width="70" height="70" as="geometry" />
        </mxCell>
        <mxCell id="CJ1JmY6DbRSH0CXdUCkE-2" value="" style="shape=image;verticalLabelPosition=bottom;labelBackgroundColor=#ffffff;verticalAlign=top;aspect=fixed;imageAspect=0;image=data:image/svg+xml,PHN2ZyB4bWxuczpjYz0iaHR0cDovL2NyZWF0aXZlY29tbW9ucy5vcmcvbnMjIiB4bWxuczpkYz0iaHR0cDovL3B1cmwub3JnL2RjL2VsZW1lbnRzLzEuMS8iIHhtbG5zOmlua3NjYXBlPSJodHRwOi8vd3d3Lmlua3NjYXBlLm9yZy9uYW1lc3BhY2VzL2lua3NjYXBlIiB4bWxuczpyZGY9Imh0dHA6Ly93d3cudzMub3JnLzE5OTkvMDIvMjItcmRmLXN5bnRheC1ucyMiIHhtbG5zOnNvZGlwb2RpPSJodHRwOi8vc29kaXBvZGkuc291cmNlZm9yZ2UubmV0L0RURC9zb2RpcG9kaS0wLmR0ZCIgeG1sbnM6c3ZnPSJodHRwOi8vd3d3LnczLm9yZy8yMDAwL3N2ZyIgeG1sbnM9Imh0dHA6Ly93d3cudzMub3JnLzIwMDAvc3ZnIiB4bWxuczp4bGluaz0iaHR0cDovL3d3dy53My5vcmcvMTk5OS94bGluayIgdmVyc2lvbj0iMS4xIiBpZD0ic3ZnMTc1ODMxIiBpbmtzY2FwZTp2ZXJzaW9uPSIwLjkyLjMgKDI0MDU1NDYsIDIwMTgtMDMtMTEpIiBzb2RpcG9kaTpkb2NuYW1lPSJodG1sNS5zdmciIHg9IjBweCIgeT0iMHB4IiB2aWV3Qm94PSIwIDAgMjYuNDEgMzcuMjgiIHN0eWxlPSJlbmFibGUtYmFja2dyb3VuZDpuZXcgMCAwIDI2LjQxIDM3LjI4OyIgeG1sOnNwYWNlPSJwcmVzZXJ2ZSI+JiN4YTs8c29kaXBvZGk6bmFtZWR2aWV3IGJvcmRlcmNvbG9yPSIjNjY2NjY2IiBib3JkZXJvcGFjaXR5PSIxIiBmaXQtbWFyZ2luLWJvdHRvbT0iMCIgZml0LW1hcmdpbi1sZWZ0PSIwIiBmaXQtbWFyZ2luLXJpZ2h0PSIwIiBmaXQtbWFyZ2luLXRvcD0iMCIgZ3JpZHRvbGVyYW5jZT0iMTAiIGd1aWRldG9sZXJhbmNlPSIxMCIgaWQ9Im5hbWVkdmlldzE3NTgzMyIgaW5rc2NhcGU6Y3VycmVudC1sYXllcj0ic3ZnMTc1ODMxIiBpbmtzY2FwZTpjeD0iMTcuNjA4MTM0IiBpbmtzY2FwZTpjeT0iMjQuODUyNjY3IiBpbmtzY2FwZTpwYWdlb3BhY2l0eT0iMCIgaW5rc2NhcGU6cGFnZXNoYWRvdz0iMiIgaW5rc2NhcGU6d2luZG93LWhlaWdodD0iMTAxNyIgaW5rc2NhcGU6d2luZG93LW1heGltaXplZD0iMSIgaW5rc2NhcGU6d2luZG93LXdpZHRoPSIxOTIwIiBpbmtzY2FwZTp3aW5kb3cteD0iLTgiIGlua3NjYXBlOndpbmRvdy15PSItOCIgaW5rc2NhcGU6em9vbT0iMTYuNzY3MjMxIiBvYmplY3R0b2xlcmFuY2U9IjEwIiBwYWdlY29sb3I9IiNmZmZmZmYiIHNob3dncmlkPSJmYWxzZSI+JiN4YTsJPC9zb2RpcG9kaTpuYW1lZHZpZXc+JiN4YTs8ZyBpZD0iZzE3NTgyOSIgdHJhbnNmb3JtPSJ0cmFuc2xhdGUoLTAuNzUwMDE5OTYsLTAuNzQ2MzIyNDEpIj4mI3hhOwk8dGl0bGUgaWQ9InRpdGxlMTc1NzcxIj5QYWdlLTE8L3RpdGxlPiYjeGE7CTxnIGlkPSJncm91cDEwOTctMSIgdHJhbnNmb3JtPSJ0cmFuc2xhdGUoMC43NSwtMC43NSkiPiYjeGE7CQk8dGl0bGUgaWQ9InRpdGxlMTc1NzczIj5IVE1MNTwvdGl0bGU+JiN4YTsJCTxnIGlkPSJzaGFwZTEwOTgtMiI+JiN4YTsJCQk8dGl0bGUgaWQ9InRpdGxlMTc1Nzc1Ij5TaGVldC4xMDk4PC90aXRsZT4mI3hhOwkJCTxwYXRoIGlkPSJwYXRoMTc1Nzc3IiBpbmtzY2FwZTpjb25uZWN0b3ItY3VydmF0dXJlPSIwIiBzdHlsZT0iZmlsbDojRTQ1MTI2OyIgZD0iTTIuNCwzNS43OUwwLDguODNoMjYuNDFsLTIuNCwyNi45NWwtMTAuODIsMyAgICAgTDIuNCwzNS43OXoiLz4mI3hhOwkJPC9nPiYjeGE7CQk8ZyBpZD0ic2hhcGUxMDk5LTQiIHRyYW5zZm9ybT0idHJhbnNsYXRlKDEzLjIwNjEsLTIuMjkxOTkpIj4mI3hhOwkJCTx0aXRsZSBpZD0idGl0bGUxNzU3ODAiPlNoZWV0LjEwOTk8L3RpdGxlPiYjeGE7CQkJPHBhdGggaWQ9InBhdGgxNzU3ODIiIGlua3NjYXBlOmNvbm5lY3Rvci1jdXJ2YXR1cmU9IjAiIHN0eWxlPSJmaWxsOiNGMTY4MkI7IiBkPSJNMCwzOC43OGw4Ljc0LTIuNDJsMi4wNi0yMy4wNEgwVjM4Ljc4eiIvPiYjeGE7CQk8L2c+JiN4YTsJCTxnIGlkPSJzaGFwZTExMDAtNiIgdHJhbnNmb3JtPSJ0cmFuc2xhdGUoNC45MTQ4MywtMTQuNDQ0NCkiPiYjeGE7CQkJPHRpdGxlIGlkPSJ0aXRsZTE3NTc4NSI+U2hlZXQuMTEwMDwvdGl0bGU+JiN4YTsJCQk8cGF0aCBpZD0icGF0aDE3NTc4NyIgaW5rc2NhcGU6Y29ubmVjdG9yLWN1cnZhdHVyZT0iMCIgc3R5bGU9ImZpbGw6I0VCRUJFQjsiIGQ9Ik04LjI5LDM1LjQ3SDMuOTJsLTAuMzEtMy4zOGg0LjY4di0zLjMxSDguMjhIMCAgICAgbDAuMDgsMC44OWwwLjgxLDkuMTFoNy40VjM1LjQ3eiIvPiYjeGE7CQk8L2c+JiN4YTsJCTxnIGlkPSJzaGFwZTExMDEtOCIgdHJhbnNmb3JtPSJ0cmFuc2xhdGUoNS45NTQ0NSwtNS43MTg5NikiPiYjeGE7CQkJPHRpdGxlIGlkPSJ0aXRsZTE3NTc5MCI+U2hlZXQuMTEwMTwvdGl0bGU+JiN4YTsJCQk8cGF0aCBpZD0icGF0aDE3NTc5MiIgaW5rc2NhcGU6Y29ubmVjdG9yLWN1cnZhdHVyZT0iMCIgc3R5bGU9ImZpbGw6I0VCRUJFQjsiIGQ9Ik03LjI1LDM1LjM0SDcuMjRsLTMuNjktMC45OWwtMC4yMy0yLjY0SDEuNTNIMCAgICAgbDAuNDYsNS4xOWw2Ljc4LDEuODhoMC4wMUw3LjI1LDM1LjM0eiIvPiYjeGE7CQk8L2c+JiN4YTsJCTxnIGlkPSJncm91cDExMDItMTAiIHRyYW5zZm9ybT0idHJhbnNsYXRlKDIuNDU3NDIsLTMyLjI1MzUpIj4mI3hhOwkJCTx0aXRsZSBpZD0idGl0bGUxNzU3OTUiPlNoZWV0LjExMDI8L3RpdGxlPiYjeGE7CQkJPGcgaWQ9InNoYXBlMTEwMy0xMSIgdHJhbnNmb3JtPSJ0cmFuc2xhdGUoMCwtOC44Nzk1NWUtNSkiPiYjeGE7CQkJCTx0aXRsZSBpZD0idGl0bGUxNzU3OTciPlNoZWV0LjExMDM8L3RpdGxlPiYjeGE7CQkJCTxwYXRoIGlkPSJwYXRoMTc1Nzk5IiBpbmtzY2FwZTpjb25uZWN0b3ItY3VydmF0dXJlPSIwIiBzdHlsZT0iZmlsbDojMDIwMjAyOyIgZD0iTTAsMzMuNzVoMS42OHYxLjY2aDEuNTR2LTEuNjZINC45djUuMDNIMy4yMiAgICAgIFYzNy4xSDEuNjh2MS42OEgwVjMzLjc1eiIvPiYjeGE7CQkJPC9nPiYjeGE7CQkJPGcgaWQ9InNoYXBlMTEwNC0xMyIgdHJhbnNmb3JtPSJ0cmFuc2xhdGUoNS42MjgyMikiPiYjeGE7CQkJCTx0aXRsZSBpZD0idGl0bGUxNzU4MDIiPlNoZWV0LjExMDQ8L3RpdGxlPiYjeGE7CQkJCTxwYXRoIGlkPSJwYXRoMTc1ODA0IiBpbmtzY2FwZTpjb25uZWN0b3ItY3VydmF0dXJlPSIwIiBzdHlsZT0iZmlsbDojMDIwMjAyOyIgZD0iTTEuNDgsMzUuNDJIMHYtMS42N2g0LjY0djEuNjdIMy4xNnYzLjM2SDEuNDggICAgICBWMzUuNDJ6Ii8+JiN4YTsJCQk8L2c+JiN4YTsJCQk8ZyBpZD0ic2hhcGUxMTA1LTE1IiB0cmFuc2Zvcm09InRyYW5zbGF0ZSgxMS4wMDQzLC04Ljg3OTU1ZS01KSI+JiN4YTsJCQkJPHRpdGxlIGlkPSJ0aXRsZTE3NTgwNyI+U2hlZXQuMTEwNTwvdGl0bGU+JiN4YTsJCQkJPHBhdGggaWQ9InBhdGgxNzU4MDkiIGlua3NjYXBlOmNvbm5lY3Rvci1jdXJ2YXR1cmU9IjAiIHN0eWxlPSJmaWxsOiMwMjAyMDI7IiBkPSJNMCwzMy43NWgxLjc1bDEuMDgsMS43N2wxLjA4LTEuNzdoMS43NXY1LjAzICAgICAgSDMuOTl2LTIuNDlsLTEuMTYsMS43OUgyLjhsLTEuMTYtMS43OXYyLjQ5SDBWMzMuNzV6Ii8+JiN4YTsJCQk8L2c+JiN4YTsJCQk8ZyBpZD0ic2hhcGUxMTA2LTE3IiB0cmFuc2Zvcm09InRyYW5zbGF0ZSgxNy41LC0xLjc3NTkxZS00KSI+JiN4YTsJCQkJPHRpdGxlIGlkPSJ0aXRsZTE3NTgxMiI+U2hlZXQuMTEwNjwvdGl0bGU+JiN4YTsJCQkJPHBhdGggaWQ9InBhdGgxNzU4MTQiIGlua3NjYXBlOmNvbm5lY3Rvci1jdXJ2YXR1cmU9IjAiIHN0eWxlPSJmaWxsOiMwMjAyMDI7IiBkPSJNMCwzMy43NWgxLjY4djMuMzdoMi4zNnYxLjY2SDBWMzMuNzV6Ii8+JiN4YTsJCQk8L2c+JiN4YTsJCTwvZz4mI3hhOwkJPGcgaWQ9InNoYXBlMTEwNy0xOSIgdHJhbnNmb3JtPSJ0cmFuc2xhdGUoMTMuMTk0NywtNS43MjA0NykiPiYjeGE7CQkJPHRpdGxlIGlkPSJ0aXRsZTE3NTgxOCI+U2hlZXQuMTEwNzwvdGl0bGU+JiN4YTsJCQk8cGF0aCBpZD0icGF0aDE3NTgyMCIgaW5rc2NhcGU6Y29ubmVjdG9yLWN1cnZhdHVyZT0iMCIgc3R5bGU9ImZpbGw6I0ZGRkZGRjsiIGQ9Ik0wLDI2Ljc1djMuMzFoNC4wN2wtMC4zOCw0LjI5TDAsMzUuMzR2My40NCAgICAgbDYuNzgtMS44OGwwLjA1LTAuNTZsMC43OC04LjdsMC4wOC0wLjg5aC0wLjlMMCwyNi43NXoiLz4mI3hhOwkJPC9nPiYjeGE7CQk8ZyBpZD0ic2hhcGUxMTA4LTIxIiB0cmFuc2Zvcm09InRyYW5zbGF0ZSgxMy4xOTQ3LC0yMS4xMzY3KSI+JiN4YTsJCQk8dGl0bGUgaWQ9InRpdGxlMTc1ODIzIj5TaGVldC4xMTA4PC90aXRsZT4mI3hhOwkJCTxwYXRoIGlkPSJwYXRoMTc1ODI1IiBpbmtzY2FwZTpjb25uZWN0b3ItY3VydmF0dXJlPSIwIiBzdHlsZT0iZmlsbDojRkZGRkZGOyIgZD0iTTAsMzUuNDd2Mi4wNnYxLjI0djAuMDFoNy45OGgwLjAxbDAuMDYtMC43NCAgICAgbDAuMTUtMS42OGwwLjA4LTAuODlIMHoiLz4mI3hhOwkJPC9nPiYjeGE7CTwvZz4mI3hhOzwvZz4mI3hhOzwvc3ZnPg==;" vertex="1" parent="WIyWlLk6GJQsqaUBKTNV-1">
          <mxGeometry x="203.5" y="185.75" width="33" height="46.96" as="geometry" />
        </mxCell>
        <mxCell id="CJ1JmY6DbRSH0CXdUCkE-4" value="" style="shape=image;verticalLabelPosition=bottom;labelBackgroundColor=#ffffff;verticalAlign=top;aspect=fixed;imageAspect=0;image=data:image/svg+xml,PHN2ZyB4bWxuczpjYz0iaHR0cDovL2NyZWF0aXZlY29tbW9ucy5vcmcvbnMjIiB4bWxuczpkYz0iaHR0cDovL3B1cmwub3JnL2RjL2VsZW1lbnRzLzEuMS8iIHhtbG5zOmlua3NjYXBlPSJodHRwOi8vd3d3Lmlua3NjYXBlLm9yZy9uYW1lc3BhY2VzL2lua3NjYXBlIiB4bWxuczpyZGY9Imh0dHA6Ly93d3cudzMub3JnLzE5OTkvMDIvMjItcmRmLXN5bnRheC1ucyMiIHhtbG5zOnNvZGlwb2RpPSJodHRwOi8vc29kaXBvZGkuc291cmNlZm9yZ2UubmV0L0RURC9zb2RpcG9kaS0wLmR0ZCIgeG1sbnM6c3ZnPSJodHRwOi8vd3d3LnczLm9yZy8yMDAwL3N2ZyIgeG1sbnM9Imh0dHA6Ly93d3cudzMub3JnLzIwMDAvc3ZnIiB4bWxuczp4bGluaz0iaHR0cDovL3d3dy53My5vcmcvMTk5OS94bGluayIgdmVyc2lvbj0iMS4xIiBpZD0ic3ZnMTc1NjcxIiBpbmtzY2FwZTp2ZXJzaW9uPSIwLjkyLjMgKDI0MDU1NDYsIDIwMTgtMDMtMTEpIiBzb2RpcG9kaTpkb2NuYW1lPSJnaXRodWIuc3ZnIiB4PSIwcHgiIHk9IjBweCIgdmlld0JveD0iMCAwIDQ1LjI3IDQ1LjI5IiBzdHlsZT0iZW5hYmxlLWJhY2tncm91bmQ6bmV3IDAgMCA0NS4yNyA0NS4yOTsiIHhtbDpzcGFjZT0icHJlc2VydmUiPiYjeGE7PHNvZGlwb2RpOm5hbWVkdmlldyBib3JkZXJjb2xvcj0iIzY2NjY2NiIgYm9yZGVyb3BhY2l0eT0iMSIgZml0LW1hcmdpbi1ib3R0b209IjAiIGZpdC1tYXJnaW4tbGVmdD0iMCIgZml0LW1hcmdpbi1yaWdodD0iMCIgZml0LW1hcmdpbi10b3A9IjAiIGdyaWR0b2xlcmFuY2U9IjEwIiBndWlkZXRvbGVyYW5jZT0iMTAiIGlkPSJuYW1lZHZpZXcxNzU2NzMiIGlua3NjYXBlOmN1cnJlbnQtbGF5ZXI9InN2ZzE3NTY3MSIgaW5rc2NhcGU6Y3g9IjMwLjE3ODAyNSIgaW5rc2NhcGU6Y3k9IjMwLjE5NDMxOSIgaW5rc2NhcGU6cGFnZW9wYWNpdHk9IjAiIGlua3NjYXBlOnBhZ2VzaGFkb3c9IjIiIGlua3NjYXBlOndpbmRvdy1oZWlnaHQ9IjEwMTciIGlua3NjYXBlOndpbmRvdy1tYXhpbWl6ZWQ9IjEiIGlua3NjYXBlOndpbmRvdy13aWR0aD0iMTkyMCIgaW5rc2NhcGU6d2luZG93LXg9Ii04IiBpbmtzY2FwZTp3aW5kb3cteT0iLTgiIGlua3NjYXBlOnpvb209IjEwLjA5NTE1OCIgb2JqZWN0dG9sZXJhbmNlPSIxMCIgcGFnZWNvbG9yPSIjZmZmZmZmIiBzaG93Z3JpZD0iZmFsc2UiPiYjeGE7CTwvc29kaXBvZGk6bmFtZWR2aWV3PiYjeGE7PGcgaWQ9ImcxNzU2NjkiIHRyYW5zZm9ybT0idHJhbnNsYXRlKC05LjU2MjU0MTcsLTkuNTYxMzEpIj4mI3hhOwk8dGl0bGUgaWQ9InRpdGxlMTc1NjU5Ij5QYWdlLTE8L3RpdGxlPiYjeGE7CTxnIGlkPSJncm91cDIyNTAtMSIgdHJhbnNmb3JtPSJ0cmFuc2xhdGUoOS41NjMwOCwtOS4zNzg2OSkiPiYjeGE7CQk8dGl0bGUgaWQ9InRpdGxlMTc1NjYxIj5HaXRIdWI8L3RpdGxlPiYjeGE7CQk8ZyBpZD0ic2hhcGUyMjUxLTIiPiYjeGE7CQkJPHRpdGxlIGlkPSJ0aXRsZTE3NTY2MyI+U2hlZXQuMjI1MTwvdGl0bGU+JiN4YTsJCQk8cGF0aCBpZD0icGF0aDE3NTY2NSIgaW5rc2NhcGU6Y29ubmVjdG9yLWN1cnZhdHVyZT0iMCIgZD0iTTIyLjYzLDE4Ljk0QzEwLjE0LDE4Ljk0LDAsMjkuMzMsMCw0Mi4xNSAgICAgYy0wLjA3LDkuODksNi4xNSwxOC43MywxNS40OCwyMi4wMWMxLjEzLDAuMjIsMS41NC0wLjUsMS41NC0xLjExYzAtMC42MiwwLTIuMDEsMC0zLjk1Yy02LjI5LDEuNDEtNy42Mi0zLjExLTcuNjItMy4xMSAgICAgYy0xLjAzLTIuNjgtMi41MS0zLjQtMi41MS0zLjRjLTIuMDYtMS40MSwwLjE1LTEuNDEsMC4xNS0xLjQxYzIuMjcsMC4xNiwzLjQ3LDIuMzksMy40NywyLjM5YzIuMDIsMy41NCw1LjMsMi41Miw2LjU4LDEuOTMgICAgIGMwLjEtMS4xNywwLjYtMi4yNiwxLjQyLTMuMUMxMy40OCw1MS44MSw4LjIsNDkuODIsOC4yLDQwLjkyYy0wLjA0LTIuMjksMC43OS00LjUxLDIuMzItNi4yMmMtMC42OS0yLTAuNjEtNC4xOSwwLjIyLTYuMTQgICAgIGMwLDAsMS45MS0wLjYyLDYuMjMsMi40YzMuNy0xLjA0LDcuNjItMS4wNCwxMS4zMiwwYzQuMzItMyw2LjIyLTIuMzcsNi4yMi0yLjM3YzAuODMsMS45NSwwLjkxLDQuMTQsMC4yMiw2LjE0ICAgICBjMS41MywxLjcsMi4zNywzLjkzLDIuMzMsNi4yMmMwLDguOTEtNS4yOSwxMC44OC0xMC4zMywxMS40NWMwLjgxLDAuNzEsMS41MywyLjEyLDEuNTMsNC4zYzAsMy4xMSwwLDUuNjEsMCw2LjM3ICAgICBjMCwwLjYyLDAuNDEsMS4zNCwxLjU2LDEuMTJjOS4zMy0zLjMsMTUuNTMtMTIuMTUsMTUuNDUtMjIuMDRDNDUuMjcsMjkuMzMsMzUuMTMsMTguOTQsMjIuNjMsMTguOTR6Ii8+JiN4YTsJCTwvZz4mI3hhOwk8L2c+JiN4YTs8L2c+JiN4YTs8L3N2Zz4=;" vertex="1" parent="WIyWlLk6GJQsqaUBKTNV-1">
          <mxGeometry x="397.04" y="60" width="70" height="70" as="geometry" />
        </mxCell>
        <mxCell id="CJ1JmY6DbRSH0CXdUCkE-5" value="" style="shape=image;verticalLabelPosition=bottom;labelBackgroundColor=#ffffff;verticalAlign=top;aspect=fixed;imageAspect=0;image=data:image/svg+xml,PHN2ZyB4bWxuczpkYz0iaHR0cDovL3B1cmwub3JnL2RjL2VsZW1lbnRzLzEuMS8iIHhtbG5zOmNjPSJodHRwOi8vY3JlYXRpdmVjb21tb25zLm9yZy9ucyMiIHhtbG5zOnJkZj0iaHR0cDovL3d3dy53My5vcmcvMTk5OS8wMi8yMi1yZGYtc3ludGF4LW5zIyIgeG1sbnM6c3ZnPSJodHRwOi8vd3d3LnczLm9yZy8yMDAwL3N2ZyIgeG1sbnM9Imh0dHA6Ly93d3cudzMub3JnLzIwMDAvc3ZnIiB4bWxuczp4bGluaz0iaHR0cDovL3d3dy53My5vcmcvMTk5OS94bGluayIgeG1sbnM6c29kaXBvZGk9Imh0dHA6Ly9zb2RpcG9kaS5zb3VyY2Vmb3JnZS5uZXQvRFREL3NvZGlwb2RpLTAuZHRkIiB4bWxuczppbmtzY2FwZT0iaHR0cDovL3d3dy5pbmtzY2FwZS5vcmcvbmFtZXNwYWNlcy9pbmtzY2FwZSIgdmVyc2lvbj0iMS4xIiBpZD0iTGF5ZXJfMSIgeD0iMHB4IiB5PSIwcHgiIHZpZXdCb3g9IjAgMCA4OC43Njk5OTcgNjQuMjk5OTk1IiB4bWw6c3BhY2U9InByZXNlcnZlIiBzb2RpcG9kaTpkb2NuYW1lPSJjb2RlLnN2ZyIgd2lkdGg9Ijg4Ljc2OTk5NyIgaGVpZ2h0PSI2NC4yOTk5OTUiIGlua3NjYXBlOnZlcnNpb249IjAuOTIuMyAoMjQwNTU0NiwgMjAxOC0wMy0xMSkiPjxtZXRhZGF0YSBpZD0ibWV0YWRhdGEzODczOSI+PHJkZjpSREY+PGNjOldvcmsgcmRmOmFib3V0PSIiPjxkYzpmb3JtYXQ+aW1hZ2Uvc3ZnK3htbDwvZGM6Zm9ybWF0PjxkYzp0eXBlIHJkZjpyZXNvdXJjZT0iaHR0cDovL3B1cmwub3JnL2RjL2RjbWl0eXBlL1N0aWxsSW1hZ2UiLz48ZGM6dGl0bGUvPjwvY2M6V29yaz48L3JkZjpSREY+PC9tZXRhZGF0YT48ZGVmcyBpZD0iZGVmczM4NzM3Ii8+PHNvZGlwb2RpOm5hbWVkdmlldyBwYWdlY29sb3I9IiNmZmZmZmYiIGJvcmRlcmNvbG9yPSIjNjY2NjY2IiBib3JkZXJvcGFjaXR5PSIxIiBvYmplY3R0b2xlcmFuY2U9IjEwIiBncmlkdG9sZXJhbmNlPSIxMCIgZ3VpZGV0b2xlcmFuY2U9IjEwIiBpbmtzY2FwZTpwYWdlb3BhY2l0eT0iMCIgaW5rc2NhcGU6cGFnZXNoYWRvdz0iMiIgaW5rc2NhcGU6d2luZG93LXdpZHRoPSIxOTIwIiBpbmtzY2FwZTp3aW5kb3ctaGVpZ2h0PSIxMDE3IiBpZD0ibmFtZWR2aWV3Mzg3MzUiIHNob3dncmlkPSJmYWxzZSIgZml0LW1hcmdpbi10b3A9IjAiIGZpdC1tYXJnaW4tbGVmdD0iMCIgZml0LW1hcmdpbi1yaWdodD0iMCIgZml0LW1hcmdpbi1ib3R0b209IjAiIGlua3NjYXBlOnpvb209IjEuMDMwMzAzIiBpbmtzY2FwZTpjeD0iNi43NDQ5OTUxIiBpbmtzY2FwZTpjeT0iLTI2Mi42MzAwMSIgaW5rc2NhcGU6d2luZG93LXg9Ii04IiBpbmtzY2FwZTp3aW5kb3cteT0iLTgiIGlua3NjYXBlOndpbmRvdy1tYXhpbWl6ZWQ9IjEiIGlua3NjYXBlOmN1cnJlbnQtbGF5ZXI9IkxheWVyXzEiLz4mI3hhOyYjeGE7PGcgaWQ9ImczODczMiIgdHJhbnNmb3JtPSJ0cmFuc2xhdGUoLTI5MC42MywtOTMuODIpIj4mI3hhOwk8ZGVmcyBpZD0iZGVmczM4NzA1Ij4mI3hhOwkJPHJlY3QgaWQ9IlNWR0lEXzNfIiB4PSIyOTAuNjMiIHk9IjkzLjgyIiB3aWR0aD0iOTAuMDU5OTk4IiBoZWlnaHQ9IjY0LjkxOTk5OCIvPiYjeGE7CTwvZGVmcz4mI3hhOwk8Y2xpcFBhdGggaWQ9IlNWR0lEXzRfIj4mI3hhOwkJPHVzZSB4bGluazpocmVmPSIjU1ZHSURfM18iIHN0eWxlPSJvdmVyZmxvdzp2aXNpYmxlIiBpZD0idXNlMzg3MDciIHg9IjAiIHk9IjAiIHdpZHRoPSIxMDAlIiBoZWlnaHQ9IjEwMCUiLz4mI3hhOwk8L2NsaXBQYXRoPiYjeGE7CTxnIGNsaXAtcGF0aD0idXJsKCNTVkdJRF80XykiIGlkPSJnMzg3MzAiPiYjeGE7CQk8ZGVmcyBpZD0iZGVmczM4NzExIj4mI3hhOwkJCTxyZWN0IGlkPSJTVkdJRF81XyIgeD0iMjkwLjYzIiB5PSI5My44MiIgd2lkdGg9IjkwLjA1OTk5OCIgaGVpZ2h0PSI2NC45MTk5OTgiLz4mI3hhOwkJPC9kZWZzPiYjeGE7CQk8Y2xpcFBhdGggaWQ9IlNWR0lEXzZfIj4mI3hhOwkJCTx1c2UgeGxpbms6aHJlZj0iI1NWR0lEXzVfIiBzdHlsZT0ib3ZlcmZsb3c6dmlzaWJsZSIgaWQ9InVzZTM4NzEzIiB4PSIwIiB5PSIwIiB3aWR0aD0iMTAwJSIgaGVpZ2h0PSIxMDAlIi8+JiN4YTsJCTwvY2xpcFBhdGg+JiN4YTsJCTxwYXRoIHN0eWxlPSJmaWxsOiNlN2VjZWQiIGQ9Ik0gMzc0Ljg4LDE1My41MSBWIDk4LjUyIGMgMCwtMi42MSAtMi4xNywtNC43IC00LjcsLTQuNyBoIC03MC4yNCBjIC0yLjYxLDAgLTQuNywyLjE3IC00LjcsNC43IHYgNTUuMDMgeiIgY2xpcC1wYXRoPSJ1cmwoI1NWR0lEXzZfKSIgaWQ9InBhdGgzODcxNiIgaW5rc2NhcGU6Y29ubmVjdG9yLWN1cnZhdHVyZT0iMCIvPiYjeGE7CQk8cmVjdCB4PSIyOTAuNjMiIHk9IjE1My41MDk5OSIgc3R5bGU9ImZpbGw6I2FmYjZiYiIgd2lkdGg9Ijg4Ljc2OTk5NyIgaGVpZ2h0PSI0LjYxMDAwMDEiIGNsaXAtcGF0aD0idXJsKCNTVkdJRF82XykiIGlkPSJyZWN0Mzg3MTgiLz4mI3hhOwkJPHJlY3QgeD0iMjk5Ljc2MDAxIiB5PSI5OC4zMzk5OTYiIHN0eWxlPSJmaWxsOiM1NDZhNzkiIHdpZHRoPSI3MC40MTk5OTgiIGhlaWdodD0iNDQuNDAwMDAyIiBjbGlwLXBhdGg9InVybCgjU1ZHSURfNl8pIiBpZD0icmVjdDM4NzIwIi8+JiN4YTsJCTxwYXRoIHN0eWxlPSJmaWxsOiM2Yzc5N2EiIGQ9Im0gMzM4LjA1LDE0OC44NSBoIC02LjEyIGMgLTAuOTMsMCAtMS41NSwtMC41OCAtMS41NSwtMS41NSAwLC0wLjkzIDAuNjIsLTEuNTUgMS41NSwtMS41NSBoIDYuMTIgYyAwLjkzLDAgMS41NSwwLjYyIDEuNTUsMS41NSAwLDAuOTggLTAuOCwxLjU1IC0xLjU1LDEuNTUgeiIgY2xpcC1wYXRoPSJ1cmwoI1NWR0lEXzZfKSIgaWQ9InBhdGgzODcyMiIgaW5rc2NhcGU6Y29ubmVjdG9yLWN1cnZhdHVyZT0iMCIvPiYjeGE7CQk8cG9seWdvbiBzdHlsZT0iZmlsbDojZmZmZmZmIiBwb2ludHM9IjMxNC4xMiwxMjIuMTggMzI2LjcsMTE2Ljg2IDMyNi43LDEyMC4yMyAzMTkuMTcsMTIzLjUxIDMyNi43LDEyNi42MSAzMjYuNywxMjkuOTggMzE0LjEyLDEyNC42NiAiIGNsaXAtcGF0aD0idXJsKCNTVkdJRF82XykiIGlkPSJwb2x5Z29uMzg3MjQiLz4mI3hhOwkJPHBvbHlnb24gc3R5bGU9ImZpbGw6I2ZmZmZmZiIgcG9pbnRzPSIzMzAuOTEsMTMxLjI2IDMzOC41NCwxMTIuMDggMzQxLjM3LDExMy4wNSAzMzMuNzEsMTMyLjE5ICIgY2xpcC1wYXRoPSJ1cmwoI1NWR0lEXzZfKSIgaWQ9InBvbHlnb24zODcyNiIvPiYjeGE7CQk8cG9seWdvbiBzdHlsZT0iZmlsbDojZmZmZmZmIiBwb2ludHM9IjM0My4yMywxMjYuNTcgMzUwLjc3LDEyMy40NiAzNDMuMjMsMTIwLjE5IDM0My4yMywxMTYuODIgMzU1LjgyLDEyMi4xMyAzNTUuODIsMTI0LjY2IDM0My4yMywxMjkuOTggIiBjbGlwLXBhdGg9InVybCgjU1ZHSURfNl8pIiBpZD0icG9seWdvbjM4NzI4Ii8+JiN4YTsJPC9nPiYjeGE7PC9nPiYjeGE7PC9zdmc+;" vertex="1" parent="WIyWlLk6GJQsqaUBKTNV-1">
          <mxGeometry x="750" y="286" width="89" height="64" as="geometry" />
        </mxCell>
        <mxCell id="CJ1JmY6DbRSH0CXdUCkE-6" value="" style="shape=image;verticalLabelPosition=bottom;labelBackgroundColor=#ffffff;verticalAlign=top;aspect=fixed;imageAspect=0;image=data:image/svg+xml,PHN2ZyB4bWxuczpjYz0iaHR0cDovL2NyZWF0aXZlY29tbW9ucy5vcmcvbnMjIiB4bWxuczpkYz0iaHR0cDovL3B1cmwub3JnL2RjL2VsZW1lbnRzLzEuMS8iIHhtbG5zOmlua3NjYXBlPSJodHRwOi8vd3d3Lmlua3NjYXBlLm9yZy9uYW1lc3BhY2VzL2lua3NjYXBlIiB4bWxuczpyZGY9Imh0dHA6Ly93d3cudzMub3JnLzE5OTkvMDIvMjItcmRmLXN5bnRheC1ucyMiIHhtbG5zOnNvZGlwb2RpPSJodHRwOi8vc29kaXBvZGkuc291cmNlZm9yZ2UubmV0L0RURC9zb2RpcG9kaS0wLmR0ZCIgeG1sbnM6c3ZnPSJodHRwOi8vd3d3LnczLm9yZy8yMDAwL3N2ZyIgeG1sbnM9Imh0dHA6Ly93d3cudzMub3JnLzIwMDAvc3ZnIiB4bWxuczp4bGluaz0iaHR0cDovL3d3dy53My5vcmcvMTk5OS94bGluayIgdmVyc2lvbj0iMS4xIiBpZD0ic3ZnMTkzOTgxIiBpbmtzY2FwZTp2ZXJzaW9uPSIwLjkyLjMgKDI0MDU1NDYsIDIwMTgtMDMtMTEpIiBzb2RpcG9kaTpkb2NuYW1lPSJwdWxsX3JlcXVlc3Quc3ZnIiB4PSIwcHgiIHk9IjBweCIgdmlld0JveD0iMCAwIDQ0LjI1IDQ2LjM2IiBzdHlsZT0iZW5hYmxlLWJhY2tncm91bmQ6bmV3IDAgMCA0NC4yNSA0Ni4zNjsiIHhtbDpzcGFjZT0icHJlc2VydmUiPiYjeGE7PHNvZGlwb2RpOm5hbWVkdmlldyBib3JkZXJjb2xvcj0iIzY2NjY2NiIgYm9yZGVyb3BhY2l0eT0iMSIgZml0LW1hcmdpbi1ib3R0b209IjAiIGZpdC1tYXJnaW4tbGVmdD0iMCIgZml0LW1hcmdpbi1yaWdodD0iMCIgZml0LW1hcmdpbi10b3A9IjAiIGdyaWR0b2xlcmFuY2U9IjEwIiBndWlkZXRvbGVyYW5jZT0iMTAiIGlkPSJuYW1lZHZpZXcxOTM5ODMiIGlua3NjYXBlOmN1cnJlbnQtbGF5ZXI9InN2ZzE5Mzk4MSIgaW5rc2NhcGU6Y3g9IjI4Ljk5OTk5OSIgaW5rc2NhcGU6Y3k9IjMxLjAwMDAwMSIgaW5rc2NhcGU6cGFnZW9wYWNpdHk9IjAiIGlua3NjYXBlOnBhZ2VzaGFkb3c9IjIiIGlua3NjYXBlOndpbmRvdy1oZWlnaHQ9IjEwMTciIGlua3NjYXBlOndpbmRvdy1tYXhpbWl6ZWQ9IjEiIGlua3NjYXBlOndpbmRvdy13aWR0aD0iMTkyMCIgaW5rc2NhcGU6d2luZG93LXg9Ii04IiBpbmtzY2FwZTp3aW5kb3cteT0iLTgiIGlua3NjYXBlOnpvb209IjEzLjEzNjM2NCIgb2JqZWN0dG9sZXJhbmNlPSIxMCIgcGFnZWNvbG9yPSIjZmZmZmZmIiBzaG93Z3JpZD0iZmFsc2UiPiYjeGE7CTwvc29kaXBvZGk6bmFtZWR2aWV3PiYjeGE7PGcgaWQ9InNoYXBlNzkyLTIiIHRyYW5zZm9ybT0idHJhbnNsYXRlKDAuNzUsLTMuODg4MTkzNikiPiYjeGE7CTx0aXRsZSBpZD0idGl0bGUxOTM5MDkiPmNpcmNsZTE1MTwvdGl0bGU+JiN4YTsJPGNpcmNsZSBpZD0iZWxsaXBzZTE5MzkxMSIgc3R5bGU9ImZpbGw6I0U1RTVFNTsiIGN4PSI3LjUiIGN5PSI0MiIgcj0iNy41Ii8+JiN4YTs8L2c+JiN4YTs8ZyBpZD0ic2hhcGU3OTMtNCIgdHJhbnNmb3JtPSJ0cmFuc2xhdGUoOC4yNSwtMy44ODgxOTM2KSI+JiN4YTsJPHRpdGxlIGlkPSJ0aXRsZTE5MzkxNCI+cGF0aDE1MzwvdGl0bGU+JiN4YTsJPHBhdGggaWQ9InBhdGgxOTM5MTYiIGlua3NjYXBlOmNvbm5lY3Rvci1jdXJ2YXR1cmU9IjAiIHN0eWxlPSJmaWxsOiNGMkYyRjI7IiBkPSJNNy41LDQyYzAsNC4xNC0zLjM2LDcuNS03LjUsNy41bDAsMHYtMTUgICBDNC4xNCwzNC41LDcuNSwzNy44Niw3LjUsNDJMNy41LDQyeiIvPiYjeGE7PC9nPiYjeGE7PGcgaWQ9InNoYXBlNzk0LTYiIHRyYW5zZm9ybT0idHJhbnNsYXRlKDAuNzUsLTMuODg4MTkzNikiPiYjeGE7CTx0aXRsZSBpZD0idGl0bGUxOTM5MTkiPmNpcmNsZTE1NTwvdGl0bGU+JiN4YTsJPGNpcmNsZSBpZD0iZWxsaXBzZTE5MzkyMSIgc3R5bGU9ImZpbGw6bm9uZTtzdHJva2U6IzU1NkE4QTtzdHJva2Utd2lkdGg6MS41O3N0cm9rZS1taXRlcmxpbWl0OjM7IiBjeD0iNy41IiBjeT0iNDIiIHI9IjcuNSIvPiYjeGE7PC9nPiYjeGE7PGcgaWQ9InNoYXBlNzk1LTgiIHRyYW5zZm9ybT0idHJhbnNsYXRlKDAuNzUsLTMzLjEzODE5NCkiPiYjeGE7CTx0aXRsZSBpZD0idGl0bGUxOTM5MjQiPmNpcmNsZTE1NzwvdGl0bGU+JiN4YTsJPGNpcmNsZSBpZD0iZWxsaXBzZTE5MzkyNiIgc3R5bGU9ImZpbGw6I0ZGRkZGRjsiIGN4PSI3LjUiIGN5PSI0MiIgcj0iNy41Ii8+JiN4YTs8L2c+JiN4YTs8ZyBpZD0ic2hhcGU3OTYtMTAiIHRyYW5zZm9ybT0idHJhbnNsYXRlKDI4LjUsLTMuODg4MTkzNikiPiYjeGE7CTx0aXRsZSBpZD0idGl0bGUxOTM5MjkiPmNpcmNsZTE1OTwvdGl0bGU+JiN4YTsJPGNpcmNsZSBpZD0iZWxsaXBzZTE5MzkzMSIgc3R5bGU9ImZpbGw6I0ZGRkZGRjsiIGN4PSI3LjUiIGN5PSI0MiIgcj0iNy41Ii8+JiN4YTs8L2c+JiN4YTs8ZyBpZD0ic2hhcGU3OTctMTIiIHRyYW5zZm9ybT0idHJhbnNsYXRlKDguMjUsLTMzLjEzODE5NCkiPiYjeGE7CTx0aXRsZSBpZD0idGl0bGUxOTM5MzQiPnBhdGgxNjE8L3RpdGxlPiYjeGE7CTxwYXRoIGlkPSJwYXRoMTkzOTM2IiBpbmtzY2FwZTpjb25uZWN0b3ItY3VydmF0dXJlPSIwIiBzdHlsZT0iZmlsbDojRjJGMkYyOyIgZD0iTTcuNSw0MmMwLDQuMTQtMy4zNiw3LjUtNy41LDcuNWwwLDB2LTE1ICAgQzQuMTQsMzQuNSw3LjUsMzcuODYsNy41LDQyTDcuNSw0MnoiLz4mI3hhOzwvZz4mI3hhOzxnIGlkPSJzaGFwZTc5OC0xNCIgdHJhbnNmb3JtPSJ0cmFuc2xhdGUoMC43NSwtMzMuMTM4MTk0KSI+JiN4YTsJPHRpdGxlIGlkPSJ0aXRsZTE5MzkzOSI+Y2lyY2xlMTYzPC90aXRsZT4mI3hhOwk8Y2lyY2xlIGlkPSJlbGxpcHNlMTkzOTQxIiBzdHlsZT0iZmlsbDpub25lO3N0cm9rZTojNTU2QThBO3N0cm9rZS13aWR0aDoxLjU7c3Ryb2tlLW1pdGVybGltaXQ6MzsiIGN4PSI3LjUiIGN5PSI0MiIgcj0iNy41Ii8+JiN4YTs8L2c+JiN4YTs8ZyBpZD0ic2hhcGU3OTktMTYiIHRyYW5zZm9ybT0idHJhbnNsYXRlKDI4LjUsLTMuODg4MTkzNikiPiYjeGE7CTx0aXRsZSBpZD0idGl0bGUxOTM5NDQiPnBhdGgxNjU8L3RpdGxlPiYjeGE7CTxwYXRoIGlkPSJwYXRoMTkzOTQ2IiBpbmtzY2FwZTpjb25uZWN0b3ItY3VydmF0dXJlPSIwIiBzdHlsZT0iZmlsbDojRjJGMkYyOyIgZD0iTTAsNDJjMCw0LjE0LDMuMzYsNy41LDcuNSw3LjVsMCwwdi0xNSAgIEMzLjM2LDM0LjUsMCwzNy44NiwwLDQyTDAsNDJ6Ii8+JiN4YTs8L2c+JiN4YTs8ZyBpZD0ic2hhcGU4MDAtMTgiIHRyYW5zZm9ybT0idHJhbnNsYXRlKDI4LjUsLTMuODg4MTkzNikiPiYjeGE7CTx0aXRsZSBpZD0idGl0bGUxOTM5NDkiPmNpcmNsZTE2NzwvdGl0bGU+JiN4YTsJPGNpcmNsZSBpZD0iZWxsaXBzZTE5Mzk1MSIgc3R5bGU9ImZpbGw6bm9uZTtzdHJva2U6IzU1NkE4QTtzdHJva2Utd2lkdGg6MS41O3N0cm9rZS1taXRlcmxpbWl0OjM7IiBjeD0iNy41IiBjeT0iNDIiIHI9IjcuNSIvPiYjeGE7PC9nPiYjeGE7PGcgaWQ9InNoYXBlODAxLTIwIiB0cmFuc2Zvcm09InRyYW5zbGF0ZSg3LjUsLTE4LjEzODE5NCkiPiYjeGE7CTx0aXRsZSBpZD0idGl0bGUxOTM5NTQiPnJlY3QxNjk8L3RpdGxlPiYjeGE7CTxyZWN0IGlkPSJyZWN0MTkzOTU2IiB5PSIzMy43NSIgc3R5bGU9ImZpbGw6IzU1NkE4QTsiIHdpZHRoPSIxLjUiIGhlaWdodD0iMTUuNzUiLz4mI3hhOzwvZz4mI3hhOzxnIGlkPSJzaGFwZTgwMi0yMiIgdHJhbnNmb3JtPSJ0cmFuc2xhdGUoMjEuNzUsLTE4Ljg4ODE5NCkiPiYjeGE7CTx0aXRsZSBpZD0idGl0bGUxOTM5NTkiPnBhdGgxNzE8L3RpdGxlPiYjeGE7CTxwYXRoIGlkPSJwYXRoMTkzOTYxIiBpbmtzY2FwZTpjb25uZWN0b3ItY3VydmF0dXJlPSIwIiBzdHlsZT0iZmlsbDpub25lOyIgZD0iTTE0LjI1LDQ5LjVWMzMuNzVjMC4wOS00LjAzLTMuMS03LjM4LTcuMTMtNy41SDAgICBMMTQuMjUsNDkuNXoiLz4mI3hhOwkmI3hhOwkJPHBhdGggaWQ9InBhdGgxOTM5NjMiIGlua3NjYXBlOmNvbm5lY3Rvci1jdXJ2YXR1cmU9IjAiIHN0eWxlPSJmaWxsOm5vbmU7c3Ryb2tlOiM1NTZBOEE7c3Ryb2tlLXdpZHRoOjEuNTtzdHJva2UtbWl0ZXJsaW1pdDozOyIgZD0iICAgTTE0LjI1LDQ5LjVWMzMuNzVjMC4wOS00LjAzLTMuMS03LjM4LTcuMTMtNy41SDAiLz4mI3hhOzwvZz4mI3hhOzxnIGlkPSJzaGFwZTgwMy0yNSIgdHJhbnNmb3JtPSJ0cmFuc2xhdGUoMjEsLTM1LjQzMzE5NCkiPiYjeGE7CTx0aXRsZSBpZD0idGl0bGUxOTM5NjYiPnBvbHlsaW5lMTczPC90aXRsZT4mI3hhOwk8cGF0aCBpZD0icGF0aDE5Mzk2OCIgaW5rc2NhcGU6Y29ubmVjdG9yLWN1cnZhdHVyZT0iMCIgc3R5bGU9ImZpbGw6bm9uZTsiIGQ9Ik02Ljc1LDM1Ljk2TDAsNDIuOGw2Ljc1LDYuN1YzNS45NnoiLz4mI3hhOwkmI3hhOwkJPHBhdGggaWQ9InBhdGgxOTM5NzAiIGlua3NjYXBlOmNvbm5lY3Rvci1jdXJ2YXR1cmU9IjAiIHN0eWxlPSJmaWxsOm5vbmU7c3Ryb2tlOiM1NTZBOEE7c3Ryb2tlLXdpZHRoOjEuNTtzdHJva2UtbWl0ZXJsaW1pdDozOyIgZD0iICAgTTYuNzUsMzUuOTZMMCw0Mi44bDYuNzUsNi43Ii8+JiN4YTs8L2c+JiN4YTs8ZyBpZD0ic2hhcGU4MDQtMjgiIHRyYW5zZm9ybT0idHJhbnNsYXRlKC0yLjIwNSwtMi4zODgxOTM2KSI+JiN4YTsJPHRpdGxlIGlkPSJ0aXRsZTE5Mzk3MyI+cmVjdDE3NTwvdGl0bGU+JiN4YTsJPHJlY3QgaWQ9InJlY3QxOTM5NzUiIHg9IjAiIHk9IjEuNSIgc3R5bGU9ImZpbGw6bm9uZTsiIHdpZHRoPSI0Ny45MSIgaGVpZ2h0PSI0OCIvPiYjeGE7PC9nPiYjeGE7PC9zdmc+;" vertex="1" parent="WIyWlLk6GJQsqaUBKTNV-1">
          <mxGeometry x="670" y="30" width="44" height="46" as="geometry" />
        </mxCell>
        <mxCell id="CJ1JmY6DbRSH0CXdUCkE-7" value="" style="shape=image;verticalLabelPosition=bottom;labelBackgroundColor=#ffffff;verticalAlign=top;aspect=fixed;imageAspect=0;image=data:image/svg+xml,PHN2ZyB4bWxuczpjYz0iaHR0cDovL2NyZWF0aXZlY29tbW9ucy5vcmcvbnMjIiB4bWxuczpkYz0iaHR0cDovL3B1cmwub3JnL2RjL2VsZW1lbnRzLzEuMS8iIHhtbG5zOmlua3NjYXBlPSJodHRwOi8vd3d3Lmlua3NjYXBlLm9yZy9uYW1lc3BhY2VzL2lua3NjYXBlIiB4bWxuczpyZGY9Imh0dHA6Ly93d3cudzMub3JnLzE5OTkvMDIvMjItcmRmLXN5bnRheC1ucyMiIHhtbG5zOnNvZGlwb2RpPSJodHRwOi8vc29kaXBvZGkuc291cmNlZm9yZ2UubmV0L0RURC9zb2RpcG9kaS0wLmR0ZCIgeG1sbnM6c3ZnPSJodHRwOi8vd3d3LnczLm9yZy8yMDAwL3N2ZyIgeG1sbnM9Imh0dHA6Ly93d3cudzMub3JnLzIwMDAvc3ZnIiB4bWxuczp4bGluaz0iaHR0cDovL3d3dy53My5vcmcvMTk5OS94bGluayIgdmVyc2lvbj0iMS4xIiBpZD0ic3ZnMTkzMTAzIiBpbmtzY2FwZTp2ZXJzaW9uPSIwLjkyLjMgKDI0MDU1NDYsIDIwMTgtMDMtMTEpIiBzb2RpcG9kaTpkb2NuYW1lPSJwb3dlcnNoZWxsX3Rvb2xzX2Zvcl92aXN1YWxfc3R1ZGlvLnN2ZyIgeD0iMHB4IiB5PSIwcHgiIHZpZXdCb3g9IjAgMCA1Ny4xMyA0NS4xMSIgc3R5bGU9ImVuYWJsZS1iYWNrZ3JvdW5kOm5ldyAwIDAgNTcuMTMgNDUuMTE7IiB4bWw6c3BhY2U9InByZXNlcnZlIj4mI3hhOzxzb2RpcG9kaTpuYW1lZHZpZXcgYm9yZGVyY29sb3I9IiM2NjY2NjYiIGJvcmRlcm9wYWNpdHk9IjEiIGZpdC1tYXJnaW4tYm90dG9tPSIwIiBmaXQtbWFyZ2luLWxlZnQ9IjAiIGZpdC1tYXJnaW4tcmlnaHQ9IjAiIGZpdC1tYXJnaW4tdG9wPSIwIiBncmlkdG9sZXJhbmNlPSIxMCIgZ3VpZGV0b2xlcmFuY2U9IjEwIiBpZD0ibmFtZWR2aWV3MTkzMTA1IiBpbmtzY2FwZTpjdXJyZW50LWxheWVyPSJzdmcxOTMxMDMiIGlua3NjYXBlOmN4PSIzOC4wODQ2NDgiIGlua3NjYXBlOmN5PSIzMC4wNzYyODUiIGlua3NjYXBlOnBhZ2VvcGFjaXR5PSIwIiBpbmtzY2FwZTpwYWdlc2hhZG93PSIyIiBpbmtzY2FwZTp3aW5kb3ctaGVpZ2h0PSIxMDE3IiBpbmtzY2FwZTp3aW5kb3ctbWF4aW1pemVkPSIxIiBpbmtzY2FwZTp3aW5kb3ctd2lkdGg9IjE5MjAiIGlua3NjYXBlOndpbmRvdy14PSItOCIgaW5rc2NhcGU6d2luZG93LXk9Ii04IiBpbmtzY2FwZTp6b29tPSIxMC43NjQ3NjUiIG9iamVjdHRvbGVyYW5jZT0iMTAiIHBhZ2Vjb2xvcj0iI2ZmZmZmZiIgc2hvd2dyaWQ9ImZhbHNlIj4mI3hhOwk8L3NvZGlwb2RpOm5hbWVkdmlldz4mI3hhOzxnIGlkPSJnMTkzMTAxIiB0cmFuc2Zvcm09InRyYW5zbGF0ZSgtNy42NTI5MDU0LC03LjY1MDExODYpIj4mI3hhOwk8dGl0bGUgaWQ9InRpdGxlMTkzMDczIj5QYWdlLTE8L3RpdGxlPiYjeGE7CTxnIGlkPSJncm91cDEzNzEtMSIgdHJhbnNmb3JtPSJ0cmFuc2xhdGUoNy4zOTM4OCwtNy42NSkiPiYjeGE7CQk8dGl0bGUgaWQ9InRpdGxlMTkzMDc1Ij5Qb3dlclNoZWxsIC8gUG93ZXJTaGVsbCBUb29scyBmb3IgVmlzdWFsIFN0dWRpbzwvdGl0bGU+JiN4YTsJCTxnIGlkPSJncm91cDEzNzItMiI+JiN4YTsJCQk8dGl0bGUgaWQ9InRpdGxlMTkzMDc3Ij5TaGVldC4xMzcyPC90aXRsZT4mI3hhOwkJCTxnIGlkPSJzaGFwZTEzNzMtMyI+JiN4YTsJCQkJPHRpdGxlIGlkPSJ0aXRsZTE5MzA3OSI+U2hlZXQuMTM3MzwvdGl0bGU+JiN4YTsJCQkJPHBhdGggaWQ9InBhdGgxOTMwODEiIGlua3NjYXBlOmNvbm5lY3Rvci1jdXJ2YXR1cmU9IjAiIHN0eWxlPSJmaWxsOiMwMDc4RDc7IiBkPSJNNDYuNzUsNjAuNDFIMy4zNyAgICAgIGMtMS45OSwwLTMuMzctMS40NS0zLjA3LTMuMjNsNi40NC0zOC42NmMwLjI5LTEuNzgsMi4xNS0zLjIyLDQuMTUtMy4yMmg0My4zOGMyLDAsMy4zOCwxLjQ0LDMuMDgsMy4yMmwtNi40NCwzOC42NiAgICAgIEM1MC42MSw1OC45Niw0OC43NSw2MC40MSw0Ni43NSw2MC40MXoiLz4mI3hhOwkJCTwvZz4mI3hhOwkJCTxnIGlkPSJzaGFwZTEzNzQtNSIgdHJhbnNmb3JtPSJ0cmFuc2xhdGUoMTIuOTExMiwtNS4wNzY1MykiPiYjeGE7CQkJCTx0aXRsZSBpZD0idGl0bGUxOTMwODQiPlNoZWV0LjEzNzQ8L3RpdGxlPiYjeGE7CQkJCTxwYXRoIGlkPSJwYXRoMTkzMDg2IiBpbmtzY2FwZTpjb25uZWN0b3ItY3VydmF0dXJlPSIwIiBzdHlsZT0iZmlsbDojRkZGRkZGOyIgZD0iTTIuNTEsNjAuNDFjLTAuNjgsMC0xLjM1LTAuMzEtMS43OC0wLjkgICAgICBDMCw1OC41NCwwLjIxLDU3LjE2LDEuMTksNTYuNDNsMTguNjMtMTMuN0w2LjM2LDMwLjA5Yy0wLjg5LTAuODMtMC45My0yLjIzLTAuMDktMy4xMWMwLjg0LTAuODgsMi4yNC0wLjkyLDMuMTMtMC4wOSAgICAgIGwxNS4zOSwxNC40NGMwLjQ4LDAuNDUsMC43MywxLjA4LDAuNjksMS43M2MtMC4wNCwwLjY1LTAuMzcsMS4yNS0wLjg5LDEuNjRMMy44Myw1OS45N0MzLjQzLDYwLjI2LDIuOTcsNjAuNDEsMi41MSw2MC40MXoiLz4mI3hhOwkJCTwvZz4mI3hhOwkJCTxnIGlkPSJzaGFwZTEzNzUtNyIgdHJhbnNmb3JtPSJ0cmFuc2xhdGUoMjYuNjU2OSwtNS4yMTAzNCkiPiYjeGE7CQkJCTx0aXRsZSBpZD0idGl0bGUxOTMwODkiPlNoZWV0LjEzNzU8L3RpdGxlPiYjeGE7CQkJCTxwYXRoIGlkPSJwYXRoMTkzMDkxIiBpbmtzY2FwZTpjb25uZWN0b3ItY3VydmF0dXJlPSIwIiBzdHlsZT0iZmlsbDojRkZGRkZGOyIgZD0iTTEyLjUsNjAuNDFIMi4yMkMwLjk5LDYwLjQxLDAsNTkuNDIsMCw1OC4yICAgICAgQzAsNTYuOTksMC45OSw1NiwyLjIyLDU2SDEyLjVjMS4yMiwwLDIuMjEsMC45OSwyLjIxLDIuMkMxNC43MSw1OS40MiwxMy43Miw2MC40MSwxMi41LDYwLjQxeiIvPiYjeGE7CQkJPC9nPiYjeGE7CQkJPGcgaWQ9InNoYXBlMTM3Ni05IiB0cmFuc2Zvcm09InRyYW5zbGF0ZSg3LjIzNTU0LC0xLjQ4Njk1KSI+JiN4YTsJCQkJPHRpdGxlIGlkPSJ0aXRsZTE5MzA5NCI+U2hlZXQuMTM3NjwvdGl0bGU+JiN4YTsJCQkJPHBhdGggaWQ9InBhdGgxOTMwOTYiIGlua3NjYXBlOmNvbm5lY3Rvci1jdXJ2YXR1cmU9IjAiIHN0eWxlPSJmaWxsOiNGRkZGRkY7ZmlsbC1vcGFjaXR5OjAuMjU7IiBkPSJNNDcuMDQsMTYuNzlIMy42NSAgICAgIGMtMS40OSwwLTIuOTEsMC44MS0zLjY1LDEuOTZjMTAuNzksMTAuMywzMi41MSwzMS41Niw0Mi44MSw0MS42NmMwLjQ0LTAuNTEsMC43NS0xLjE1LDAuODYtMS43OWw2LjQ0LTM4LjU5ICAgICAgQzUwLjQxLDE4LjI1LDQ5LjAzLDE2Ljc5LDQ3LjA0LDE2Ljc5eiIvPiYjeGE7CQkJPC9nPiYjeGE7CQk8L2c+JiN4YTsJPC9nPiYjeGE7PC9nPiYjeGE7PC9zdmc+;" vertex="1" parent="WIyWlLk6GJQsqaUBKTNV-1">
          <mxGeometry x="714" y="90" width="57" height="45" as="geometry" />
        </mxCell>
        <mxCell id="CJ1JmY6DbRSH0CXdUCkE-8" value="" style="shape=image;verticalLabelPosition=bottom;labelBackgroundColor=#ffffff;verticalAlign=top;aspect=fixed;imageAspect=0;image=data:image/svg+xml,PHN2ZyB4bWxuczpjYz0iaHR0cDovL2NyZWF0aXZlY29tbW9ucy5vcmcvbnMjIiB4bWxuczpkYz0iaHR0cDovL3B1cmwub3JnL2RjL2VsZW1lbnRzLzEuMS8iIHhtbG5zOmlua3NjYXBlPSJodHRwOi8vd3d3Lmlua3NjYXBlLm9yZy9uYW1lc3BhY2VzL2lua3NjYXBlIiB4bWxuczpyZGY9Imh0dHA6Ly93d3cudzMub3JnLzE5OTkvMDIvMjItcmRmLXN5bnRheC1ucyMiIHhtbG5zOnNvZGlwb2RpPSJodHRwOi8vc29kaXBvZGkuc291cmNlZm9yZ2UubmV0L0RURC9zb2RpcG9kaS0wLmR0ZCIgeG1sbnM6c3ZnPSJodHRwOi8vd3d3LnczLm9yZy8yMDAwL3N2ZyIgeG1sbnM9Imh0dHA6Ly93d3cudzMub3JnLzIwMDAvc3ZnIiB4bWxuczp4bGluaz0iaHR0cDovL3d3dy53My5vcmcvMTk5OS94bGluayIgdmVyc2lvbj0iMS4xIiBpZD0ic3ZnMjA4Nzk5IiBpbmtzY2FwZTp2ZXJzaW9uPSIwLjkyLjMgKDI0MDU1NDYsIDIwMTgtMDMtMTEpIiBzb2RpcG9kaTpkb2NuYW1lPSJzb3VyY2VfY29udHJvbC5zdmciIHg9IjBweCIgeT0iMHB4IiB2aWV3Qm94PSIwIDAgMzAuNzYgMzAuNzYiIHN0eWxlPSJlbmFibGUtYmFja2dyb3VuZDpuZXcgMCAwIDMwLjc2IDMwLjc2OyIgeG1sOnNwYWNlPSJwcmVzZXJ2ZSI+JiN4YTs8c29kaXBvZGk6bmFtZWR2aWV3IGJvcmRlcmNvbG9yPSIjNjY2NjY2IiBib3JkZXJvcGFjaXR5PSIxIiBmaXQtbWFyZ2luLWJvdHRvbT0iMCIgZml0LW1hcmdpbi1sZWZ0PSIwIiBmaXQtbWFyZ2luLXJpZ2h0PSIwIiBmaXQtbWFyZ2luLXRvcD0iMCIgZ3JpZHRvbGVyYW5jZT0iMTAiIGd1aWRldG9sZXJhbmNlPSIxMCIgaWQ9Im5hbWVkdmlldzIwODgwMSIgaW5rc2NhcGU6Y3VycmVudC1sYXllcj0ic3ZnMjA4Nzk5IiBpbmtzY2FwZTpjeD0iMjAuNTExMjM3IiBpbmtzY2FwZTpjeT0iMjAuNTEwNzcxIiBpbmtzY2FwZTpwYWdlb3BhY2l0eT0iMCIgaW5rc2NhcGU6cGFnZXNoYWRvdz0iMiIgaW5rc2NhcGU6d2luZG93LWhlaWdodD0iMTAxNyIgaW5rc2NhcGU6d2luZG93LW1heGltaXplZD0iMSIgaW5rc2NhcGU6d2luZG93LXdpZHRoPSIxOTIwIiBpbmtzY2FwZTp3aW5kb3cteD0iLTgiIGlua3NjYXBlOndpbmRvdy15PSItOCIgaW5rc2NhcGU6em9vbT0iMjEuMTU0MDg1IiBvYmplY3R0b2xlcmFuY2U9IjEwIiBwYWdlY29sb3I9IiNmZmZmZmYiIHNob3dncmlkPSJmYWxzZSI+JiN4YTsJPC9zb2RpcG9kaTpuYW1lZHZpZXc+JiN4YTs8ZyBpZD0iZzIwODc5NyIgdHJhbnNmb3JtPSJ0cmFuc2xhdGUoMC4wMDI1LDAuMDEyNSkiPiYjeGE7CTx0aXRsZSBpZD0idGl0bGUyMDg3OTAiPlBhZ2UtMTwvdGl0bGU+JiN4YTsJPGcgaWQ9InNoYXBlNzkwLTEiPiYjeGE7CQk8dGl0bGUgaWQ9InRpdGxlMjA4NzkyIj5Tb3VyY2UgQ29udHJvbDwvdGl0bGU+JiN4YTsJCTxwYXRoIGlkPSJwYXRoMjA4Nzk0IiBpbmtzY2FwZTpjb25uZWN0b3ItY3VydmF0dXJlPSIwIiBzdHlsZT0iZmlsbDojRjAzQzJFOyIgZD0iTTMwLjE3LDE0TDE2Ljc1LDAuNTggICAgYy0wLjc3LTAuNzktMi4wMy0wLjc5LTIuOCwwbC0yLjc5LDIuNzdMMTQuNyw2LjlsMCwwYzAuODEtMC4yOSwxLjc2LTAuMDgsMi40MSwwLjU2YzAuNjcsMC42NywwLjg1LDEuNiwwLjU3LDIuNDNsMy40LDMuNDIgICAgYzAuODMtMC4yOCwxLjc4LTAuMSwyLjQ1LDAuNTVjMC45MSwwLjkzLDAuOTEsMi40MSwwLDMuMzRjLTAuOTMsMC45MS0yLjQzLDAuOTEtMy4zNCwwYy0wLjY5LTAuNjktMC44Ny0xLjcyLTAuNTEtMi41NyAgICBsLTMuMTgtMy4xOGwtMC4wMiw4LjM2bDAsMGMwLjI1LDAuMTIsMC40NSwwLjI3LDAuNjMsMC40NWMwLjkzLDAuOTMsMC45MywyLjQzLDAsMy4zNGMtMC45MSwwLjkxLTIuNDEsMC45MS0zLjMyLDAgICAgYy0wLjkzLTAuOTEtMC45My0yLjQxLDAtMy4zNGMwLjIyLTAuMjIsMC40OS0wLjM5LDAuNzctMC41MXYtOC40NGMtMC4yOC0wLjEyLTAuNTUtMC4zLTAuNzctMC41MWMtMC43MS0wLjctMC44Ny0xLjcyLTAuNS0yLjU5ICAgIEw5Ljc4LDQuNzNsLTkuMTksOS4yMWwwLDBjLTAuNzksMC43Ny0wLjc5LDIuMDMsMCwyLjhsMTMuNDIsMTMuNDJjMC43NywwLjc5LDIuMDMsMC43OSwyLjgsMEwzMC4xNywxNi44ICAgIEMzMC45NiwxNi4wMywzMC45NiwxNC43NywzMC4xNywxNHoiLz4mI3hhOwk8L2c+JiN4YTs8L2c+JiN4YTs8L3N2Zz4=;" vertex="1" parent="WIyWlLk6GJQsqaUBKTNV-1">
          <mxGeometry x="290" y="60" width="70" height="70" as="geometry" />
        </mxCell>
        <mxCell id="CJ1JmY6DbRSH0CXdUCkE-12" value="" style="shape=image;verticalLabelPosition=bottom;labelBackgroundColor=#ffffff;verticalAlign=top;aspect=fixed;imageAspect=0;image=data:image/svg+xml,PHN2ZyB4bWxuczpjYz0iaHR0cDovL2NyZWF0aXZlY29tbW9ucy5vcmcvbnMjIiB4bWxuczpkYz0iaHR0cDovL3B1cmwub3JnL2RjL2VsZW1lbnRzLzEuMS8iIHhtbG5zOmlua3NjYXBlPSJodHRwOi8vd3d3Lmlua3NjYXBlLm9yZy9uYW1lc3BhY2VzL2lua3NjYXBlIiB4bWxuczpyZGY9Imh0dHA6Ly93d3cudzMub3JnLzE5OTkvMDIvMjItcmRmLXN5bnRheC1ucyMiIHhtbG5zOnNvZGlwb2RpPSJodHRwOi8vc29kaXBvZGkuc291cmNlZm9yZ2UubmV0L0RURC9zb2RpcG9kaS0wLmR0ZCIgeG1sbnM6c3ZnPSJodHRwOi8vd3d3LnczLm9yZy8yMDAwL3N2ZyIgeG1sbnM9Imh0dHA6Ly93d3cudzMub3JnLzIwMDAvc3ZnIiB4bWxuczp4bGluaz0iaHR0cDovL3d3dy53My5vcmcvMTk5OS94bGluayIgdmVyc2lvbj0iMS4xIiBpZD0ic3ZnNDI5MjIiIGlua3NjYXBlOnZlcnNpb249IjAuOTIuMyAoMjQwNTU0NiwgMjAxOC0wMy0xMSkiIHNvZGlwb2RpOmRvY25hbWU9ImV4Y2VsXzEuc3ZnIiB4PSIwcHgiIHk9IjBweCIgdmlld0JveD0iMCAwIDMxLjg4IDM2LjQ0IiBzdHlsZT0iZW5hYmxlLWJhY2tncm91bmQ6bmV3IDAgMCAzMS44OCAzNi40NDsiIHhtbDpzcGFjZT0icHJlc2VydmUiPiYjeGE7PHNvZGlwb2RpOm5hbWVkdmlldyBib3JkZXJjb2xvcj0iIzY2NjY2NiIgYm9yZGVyb3BhY2l0eT0iMSIgZml0LW1hcmdpbi1ib3R0b209IjAiIGZpdC1tYXJnaW4tbGVmdD0iMCIgZml0LW1hcmdpbi1yaWdodD0iMCIgZml0LW1hcmdpbi10b3A9IjAiIGdyaWR0b2xlcmFuY2U9IjEwIiBndWlkZXRvbGVyYW5jZT0iMTAiIGlkPSJuYW1lZHZpZXc0MjkyNCIgaW5rc2NhcGU6Y3VycmVudC1sYXllcj0ic3ZnNDI5MjIiIGlua3NjYXBlOmN4PSIyMS4yNTQ2MzgiIGlua3NjYXBlOmN5PSIyNC4yOTQ4MzciIGlua3NjYXBlOnBhZ2VvcGFjaXR5PSIwIiBpbmtzY2FwZTpwYWdlc2hhZG93PSIyIiBpbmtzY2FwZTp3aW5kb3ctaGVpZ2h0PSIxMDE3IiBpbmtzY2FwZTp3aW5kb3ctbWF4aW1pemVkPSIxIiBpbmtzY2FwZTp3aW5kb3ctd2lkdGg9IjE5MjAiIGlua3NjYXBlOndpbmRvdy14PSItOCIgaW5rc2NhcGU6d2luZG93LXk9Ii04IiBpbmtzY2FwZTp6b29tPSIxNi43NDczMDEiIG9iamVjdHRvbGVyYW5jZT0iMTAiIHBhZ2Vjb2xvcj0iI2ZmZmZmZiIgc2hvd2dyaWQ9ImZhbHNlIj4mI3hhOwk8L3NvZGlwb2RpOm5hbWVkdmlldz4mI3hhOzxnIGlkPSJnNDI5MjAiIHRyYW5zZm9ybT0idHJhbnNsYXRlKC0xLjE5NTMxLC0xLjE5NDcyODUpIj4mI3hhOwk8dGl0bGUgaWQ9InRpdGxlNDI4NzIiPlBhZ2UtMTwvdGl0bGU+JiN4YTsJPGcgaWQ9Imdyb3VwNDA0Ny0xIiB0cmFuc2Zvcm09InRyYW5zbGF0ZSgxLjE5NTMxLC0xLjE5NTMxKSI+JiN4YTsJCTx0aXRsZSBpZD0idGl0bGU0Mjg3NCI+RXhjZWwgIzE8L3RpdGxlPiYjeGE7CQk8ZyBpZD0ic2hhcGU0MDQ4LTIiIHRyYW5zZm9ybT0idHJhbnNsYXRlKDQuNTU0NTYpIj4mI3hhOwkJCTx0aXRsZSBpZD0idGl0bGU0Mjg3NiI+U2hlZXQuNDA0ODwvdGl0bGU+JiN4YTsJCQk8cGF0aCBpZD0icGF0aDQyODc4IiBpbmtzY2FwZTpjb25uZWN0b3ItY3VydmF0dXJlPSIwIiBzdHlsZT0iZmlsbDojRTJFNUU3OyIgZD0iTTIuMjgsMi4zOUMxLjAyLDIuMzksMCwzLjQyLDAsNC42N3YzMS44OCAgICAgYzAsMS4yNSwxLjAyLDIuMjgsMi4yOCwyLjI4aDIyLjc3YzEuMjUsMCwyLjI4LTEuMDMsMi4yOC0yLjI4VjExLjVsLTkuMTEtOS4xMUgyLjI4eiIvPiYjeGE7CQk8L2c+JiN4YTsJCTxnIGlkPSJzaGFwZTQwNDktNCIgdHJhbnNmb3JtPSJ0cmFuc2xhdGUoMjIuNzcyOCwtMjcuMzI3NCkiPiYjeGE7CQkJPHRpdGxlIGlkPSJ0aXRsZTQyODgxIj5TaGVldC40MDQ5PC90aXRsZT4mI3hhOwkJCTxwYXRoIGlkPSJwYXRoNDI4ODMiIGlua3NjYXBlOmNvbm5lY3Rvci1jdXJ2YXR1cmU9IjAiIHN0eWxlPSJmaWxsOiNCMEI3QkQ7IiBkPSJNMi4yOCwzOC44M2g2LjgzTDAsMjkuNzJ2Ni44MyAgICAgQzAsMzcuOCwxLjAyLDM4LjgzLDIuMjgsMzguODN6Ii8+JiN4YTsJCTwvZz4mI3hhOwkJPGcgaWQ9InNoYXBlNDA1MC02IiB0cmFuc2Zvcm09InRyYW5zbGF0ZSgyNS4wNTAxLC0yMC40OTU1KSI+JiN4YTsJCQk8dGl0bGUgaWQ9InRpdGxlNDI4ODYiPlNoZWV0LjQwNTA8L3RpdGxlPiYjeGE7CQkJPHBhdGggaWQ9InBhdGg0Mjg4OCIgaW5rc2NhcGU6Y29ubmVjdG9yLWN1cnZhdHVyZT0iMCIgc3R5bGU9ImZpbGw6I0NBRDFEODsiIGQ9Ik02LjgzLDM4LjgzTDAsMzJoNi44M1YzOC44M3oiLz4mI3hhOwkJPC9nPiYjeGE7CQk8ZyBpZD0ic2hhcGU0MDUxLTgiIHRyYW5zZm9ybT0idHJhbnNsYXRlKDAsLTUuNjkzMikiPiYjeGE7CQkJPHRpdGxlIGlkPSJ0aXRsZTQyODkxIj5TaGVldC40MDUxPC90aXRsZT4mI3hhOwkJCTxwYXRoIGlkPSJwYXRoNDI4OTMiIGlua3NjYXBlOmNvbm5lY3Rvci1jdXJ2YXR1cmU9IjAiIHN0eWxlPSJmaWxsOiM5REJCNjE7IiBkPSJNMjcuMzMsMzcuNjljMCwwLjYyLTAuNTIsMS4xNC0xLjE0LDEuMTRIMS4xNCAgICAgQzAuNTEsMzguODMsMCwzOC4zMSwwLDM3LjY5VjI2LjNjMC0wLjYyLDAuNTEtMS4xNCwxLjE0LTEuMTRoMjUuMDVjMC42MiwwLDEuMTQsMC41MiwxLjE0LDEuMTRMMjcuMzMsMzcuNjl6Ii8+JiN4YTsJCTwvZz4mI3hhOwkJPGcgaWQ9Imdyb3VwNDA1Mi0xMCIgdHJhbnNmb3JtPSJ0cmFuc2xhdGUoNC44MzQ2NywtOC41MjYxNCkiPiYjeGE7CQkJPHRpdGxlIGlkPSJ0aXRsZTQyODk2Ij5TaGVldC40MDUyPC90aXRsZT4mI3hhOwkJCTxnIGlkPSJzaGFwZTQwNTMtMTEiIHRyYW5zZm9ybT0idHJhbnNsYXRlKDAsLTAuMTYzOTY0KSI+JiN4YTsJCQkJPHRpdGxlIGlkPSJ0aXRsZTQyODk4Ij5TaGVldC40MDUzPC90aXRsZT4mI3hhOwkJCQk8cGF0aCBpZD0icGF0aDQyOTAwIiBpbmtzY2FwZTpjb25uZWN0b3ItY3VydmF0dXJlPSIwIiBzdHlsZT0iZmlsbDojRkZGRkZGOyIgZD0iTTMuMTYsMzQuMjlsMS41OC0xLjk4ICAgICAgYzAuNDgtMC42MiwxLjQsMC4xNywwLjg4LDAuNzZjLTAuNTUsMC42NS0xLjEyLDEuMzUtMS42NywyLjA3bDEuODYsMi4zMWMwLjUsMC42OS0wLjUsMS4zNC0wLjk5LDAuNjdsLTEuNjgtMi4xNWwtMS42NSwyLjE5ICAgICAgYy0wLjQ2LDAuNjctMS40OS0wLjA4LTAuOTctMC43bDEuODMtMi4zMmMtMC41Ny0wLjcyLTEuMTMtMS40Mi0xLjY5LTIuMDdjLTAuNTctMC42OCwwLjUtMS4zOCwwLjkyLTAuNzRMMy4xNiwzNC4yOXoiLz4mI3hhOwkJCTwvZz4mI3hhOwkJCTxnIGlkPSJzaGFwZTQwNTQtMTMiIHRyYW5zZm9ybT0idHJhbnNsYXRlKDYuOTMzMTgsLTAuNTgyOTg0KSI+JiN4YTsJCQkJPHRpdGxlIGlkPSJ0aXRsZTQyOTAzIj5TaGVldC40MDU0PC90aXRsZT4mI3hhOwkJCQk8cGF0aCBpZD0icGF0aDQyOTA1IiBpbmtzY2FwZTpjb25uZWN0b3ItY3VydmF0dXJlPSIwIiBzdHlsZT0iZmlsbDojRkZGRkZGOyIgZD0iTTAsMzMuMDdjMC0wLjMsMC4yNi0wLjU1LDAuNTctMC41NSAgICAgIGMwLjMsMCwwLjU0LDAuMjUsMC41NCwwLjU1djQuNTZoMi40OGMwLjg5LDAsMC45MSwxLjIsMCwxLjJIMC41OEMwLjI2LDM4LjgzLDAsMzguNiwwLDM4LjI3VjMzLjA3eiIvPiYjeGE7CQkJPC9nPiYjeGE7CQkJPGcgaWQ9InNoYXBlNDA1NS0xNSIgdHJhbnNmb3JtPSJ0cmFuc2xhdGUoMTEuOTY0OCkiPiYjeGE7CQkJCTx0aXRsZSBpZD0idGl0bGU0MjkwOCI+U2hlZXQuNDA1NTwvdGl0bGU+JiN4YTsJCQkJPHBhdGggaWQ9InBhdGg0MjkxMCIgaW5rc2NhcGU6Y29ubmVjdG9yLWN1cnZhdHVyZT0iMCIgc3R5bGU9ImZpbGw6I0ZGRkZGRjsiIGQ9Ik0wLjI4LDMzLjMxYzAuMjEtMS43NywyLjg4LTIuMDgsNC4xNC0xLjEyICAgICAgYzAuNjIsMC41LTAuMDQsMS4yOS0wLjU5LDAuODljLTAuNjctMC40Mi0yLjItMC42Mi0yLjM5LDAuMzJjLTAuMjUsMS40OSwzLjcxLDAuNjQsMy42NSwzLjA2Yy0wLjA3LDIuMzEtMy40MiwyLjM3LTQuNjcsMS4zMyAgICAgIGMtMC4zLTAuMjUtMC4yOS0wLjY1LTAuMTMtMC44OWMwLjI0LTAuMjQsMC41LTAuMzIsMC44MS0wLjA3YzAuNzUsMC41MSwyLjY3LDAuOSwyLjgtMC40QzMuNzksMzUuMDksMCwzNS45LDAuMjgsMzMuMzF6Ii8+JiN4YTsJCQk8L2c+JiN4YTsJCTwvZz4mI3hhOwkJPGcgaWQ9InNoYXBlNDA1Ni0xNyIgdHJhbnNmb3JtPSJ0cmFuc2xhdGUoNC41NTQ1NiwtNC41NTQ1NikiPiYjeGE7CQkJPHRpdGxlIGlkPSJ0aXRsZTQyOTE0Ij5TaGVldC40MDU2PC90aXRsZT4mI3hhOwkJCTxwYXRoIGlkPSJwYXRoNDI5MTYiIGlua3NjYXBlOmNvbm5lY3Rvci1jdXJ2YXR1cmU9IjAiIHN0eWxlPSJmaWxsOiNDQUQxRDg7IiBkPSJNMjEuNjMsMzcuNjlIMHYxLjE0aDIxLjYzICAgICBjMC42MywwLDEuMTQtMC41MiwxLjE0LTEuMTR2LTEuMTRDMjIuNzcsMzcuMTgsMjIuMjYsMzcuNjksMjEuNjMsMzcuNjl6Ii8+JiN4YTsJCTwvZz4mI3hhOwk8L2c+JiN4YTs8L2c+JiN4YTs8L3N2Zz4=;" vertex="1" parent="WIyWlLk6GJQsqaUBKTNV-1">
          <mxGeometry x="600" y="140" width="32" height="36" as="geometry" />
        </mxCell>
        <mxCell id="CJ1JmY6DbRSH0CXdUCkE-13" value="" style="shape=image;verticalLabelPosition=bottom;labelBackgroundColor=#ffffff;verticalAlign=top;aspect=fixed;imageAspect=0;image=data:image/svg+xml,PHN2ZyB4bWxuczpjYz0iaHR0cDovL2NyZWF0aXZlY29tbW9ucy5vcmcvbnMjIiB4bWxuczpkYz0iaHR0cDovL3B1cmwub3JnL2RjL2VsZW1lbnRzLzEuMS8iIHhtbG5zOmlua3NjYXBlPSJodHRwOi8vd3d3Lmlua3NjYXBlLm9yZy9uYW1lc3BhY2VzL2lua3NjYXBlIiB4bWxuczpyZGY9Imh0dHA6Ly93d3cudzMub3JnLzE5OTkvMDIvMjItcmRmLXN5bnRheC1ucyMiIHhtbG5zOnNvZGlwb2RpPSJodHRwOi8vc29kaXBvZGkuc291cmNlZm9yZ2UubmV0L0RURC9zb2RpcG9kaS0wLmR0ZCIgeG1sbnM6c3ZnPSJodHRwOi8vd3d3LnczLm9yZy8yMDAwL3N2ZyIgeG1sbnM9Imh0dHA6Ly93d3cudzMub3JnLzIwMDAvc3ZnIiB4bWxuczp4bGluaz0iaHR0cDovL3d3dy53My5vcmcvMTk5OS94bGluayIgdmVyc2lvbj0iMS4xIiBpZD0ic3ZnNDI5MjIiIGlua3NjYXBlOnZlcnNpb249IjAuOTIuMyAoMjQwNTU0NiwgMjAxOC0wMy0xMSkiIHNvZGlwb2RpOmRvY25hbWU9ImV4Y2VsXzEuc3ZnIiB4PSIwcHgiIHk9IjBweCIgdmlld0JveD0iMCAwIDMxLjg4IDM2LjQ0IiBzdHlsZT0iZW5hYmxlLWJhY2tncm91bmQ6bmV3IDAgMCAzMS44OCAzNi40NDsiIHhtbDpzcGFjZT0icHJlc2VydmUiPiYjeGE7PHNvZGlwb2RpOm5hbWVkdmlldyBib3JkZXJjb2xvcj0iIzY2NjY2NiIgYm9yZGVyb3BhY2l0eT0iMSIgZml0LW1hcmdpbi1ib3R0b209IjAiIGZpdC1tYXJnaW4tbGVmdD0iMCIgZml0LW1hcmdpbi1yaWdodD0iMCIgZml0LW1hcmdpbi10b3A9IjAiIGdyaWR0b2xlcmFuY2U9IjEwIiBndWlkZXRvbGVyYW5jZT0iMTAiIGlkPSJuYW1lZHZpZXc0MjkyNCIgaW5rc2NhcGU6Y3VycmVudC1sYXllcj0ic3ZnNDI5MjIiIGlua3NjYXBlOmN4PSIyMS4yNTQ2MzgiIGlua3NjYXBlOmN5PSIyNC4yOTQ4MzciIGlua3NjYXBlOnBhZ2VvcGFjaXR5PSIwIiBpbmtzY2FwZTpwYWdlc2hhZG93PSIyIiBpbmtzY2FwZTp3aW5kb3ctaGVpZ2h0PSIxMDE3IiBpbmtzY2FwZTp3aW5kb3ctbWF4aW1pemVkPSIxIiBpbmtzY2FwZTp3aW5kb3ctd2lkdGg9IjE5MjAiIGlua3NjYXBlOndpbmRvdy14PSItOCIgaW5rc2NhcGU6d2luZG93LXk9Ii04IiBpbmtzY2FwZTp6b29tPSIxNi43NDczMDEiIG9iamVjdHRvbGVyYW5jZT0iMTAiIHBhZ2Vjb2xvcj0iI2ZmZmZmZiIgc2hvd2dyaWQ9ImZhbHNlIj4mI3hhOwk8L3NvZGlwb2RpOm5hbWVkdmlldz4mI3hhOzxnIGlkPSJnNDI5MjAiIHRyYW5zZm9ybT0idHJhbnNsYXRlKC0xLjE5NTMxLC0xLjE5NDcyODUpIj4mI3hhOwk8dGl0bGUgaWQ9InRpdGxlNDI4NzIiPlBhZ2UtMTwvdGl0bGU+JiN4YTsJPGcgaWQ9Imdyb3VwNDA0Ny0xIiB0cmFuc2Zvcm09InRyYW5zbGF0ZSgxLjE5NTMxLC0xLjE5NTMxKSI+JiN4YTsJCTx0aXRsZSBpZD0idGl0bGU0Mjg3NCI+RXhjZWwgIzE8L3RpdGxlPiYjeGE7CQk8ZyBpZD0ic2hhcGU0MDQ4LTIiIHRyYW5zZm9ybT0idHJhbnNsYXRlKDQuNTU0NTYpIj4mI3hhOwkJCTx0aXRsZSBpZD0idGl0bGU0Mjg3NiI+U2hlZXQuNDA0ODwvdGl0bGU+JiN4YTsJCQk8cGF0aCBpZD0icGF0aDQyODc4IiBpbmtzY2FwZTpjb25uZWN0b3ItY3VydmF0dXJlPSIwIiBzdHlsZT0iZmlsbDojRTJFNUU3OyIgZD0iTTIuMjgsMi4zOUMxLjAyLDIuMzksMCwzLjQyLDAsNC42N3YzMS44OCAgICAgYzAsMS4yNSwxLjAyLDIuMjgsMi4yOCwyLjI4aDIyLjc3YzEuMjUsMCwyLjI4LTEuMDMsMi4yOC0yLjI4VjExLjVsLTkuMTEtOS4xMUgyLjI4eiIvPiYjeGE7CQk8L2c+JiN4YTsJCTxnIGlkPSJzaGFwZTQwNDktNCIgdHJhbnNmb3JtPSJ0cmFuc2xhdGUoMjIuNzcyOCwtMjcuMzI3NCkiPiYjeGE7CQkJPHRpdGxlIGlkPSJ0aXRsZTQyODgxIj5TaGVldC40MDQ5PC90aXRsZT4mI3hhOwkJCTxwYXRoIGlkPSJwYXRoNDI4ODMiIGlua3NjYXBlOmNvbm5lY3Rvci1jdXJ2YXR1cmU9IjAiIHN0eWxlPSJmaWxsOiNCMEI3QkQ7IiBkPSJNMi4yOCwzOC44M2g2LjgzTDAsMjkuNzJ2Ni44MyAgICAgQzAsMzcuOCwxLjAyLDM4LjgzLDIuMjgsMzguODN6Ii8+JiN4YTsJCTwvZz4mI3hhOwkJPGcgaWQ9InNoYXBlNDA1MC02IiB0cmFuc2Zvcm09InRyYW5zbGF0ZSgyNS4wNTAxLC0yMC40OTU1KSI+JiN4YTsJCQk8dGl0bGUgaWQ9InRpdGxlNDI4ODYiPlNoZWV0LjQwNTA8L3RpdGxlPiYjeGE7CQkJPHBhdGggaWQ9InBhdGg0Mjg4OCIgaW5rc2NhcGU6Y29ubmVjdG9yLWN1cnZhdHVyZT0iMCIgc3R5bGU9ImZpbGw6I0NBRDFEODsiIGQ9Ik02LjgzLDM4LjgzTDAsMzJoNi44M1YzOC44M3oiLz4mI3hhOwkJPC9nPiYjeGE7CQk8ZyBpZD0ic2hhcGU0MDUxLTgiIHRyYW5zZm9ybT0idHJhbnNsYXRlKDAsLTUuNjkzMikiPiYjeGE7CQkJPHRpdGxlIGlkPSJ0aXRsZTQyODkxIj5TaGVldC40MDUxPC90aXRsZT4mI3hhOwkJCTxwYXRoIGlkPSJwYXRoNDI4OTMiIGlua3NjYXBlOmNvbm5lY3Rvci1jdXJ2YXR1cmU9IjAiIHN0eWxlPSJmaWxsOiM5REJCNjE7IiBkPSJNMjcuMzMsMzcuNjljMCwwLjYyLTAuNTIsMS4xNC0xLjE0LDEuMTRIMS4xNCAgICAgQzAuNTEsMzguODMsMCwzOC4zMSwwLDM3LjY5VjI2LjNjMC0wLjYyLDAuNTEtMS4xNCwxLjE0LTEuMTRoMjUuMDVjMC42MiwwLDEuMTQsMC41MiwxLjE0LDEuMTRMMjcuMzMsMzcuNjl6Ii8+JiN4YTsJCTwvZz4mI3hhOwkJPGcgaWQ9Imdyb3VwNDA1Mi0xMCIgdHJhbnNmb3JtPSJ0cmFuc2xhdGUoNC44MzQ2NywtOC41MjYxNCkiPiYjeGE7CQkJPHRpdGxlIGlkPSJ0aXRsZTQyODk2Ij5TaGVldC40MDUyPC90aXRsZT4mI3hhOwkJCTxnIGlkPSJzaGFwZTQwNTMtMTEiIHRyYW5zZm9ybT0idHJhbnNsYXRlKDAsLTAuMTYzOTY0KSI+JiN4YTsJCQkJPHRpdGxlIGlkPSJ0aXRsZTQyODk4Ij5TaGVldC40MDUzPC90aXRsZT4mI3hhOwkJCQk8cGF0aCBpZD0icGF0aDQyOTAwIiBpbmtzY2FwZTpjb25uZWN0b3ItY3VydmF0dXJlPSIwIiBzdHlsZT0iZmlsbDojRkZGRkZGOyIgZD0iTTMuMTYsMzQuMjlsMS41OC0xLjk4ICAgICAgYzAuNDgtMC42MiwxLjQsMC4xNywwLjg4LDAuNzZjLTAuNTUsMC42NS0xLjEyLDEuMzUtMS42NywyLjA3bDEuODYsMi4zMWMwLjUsMC42OS0wLjUsMS4zNC0wLjk5LDAuNjdsLTEuNjgtMi4xNWwtMS42NSwyLjE5ICAgICAgYy0wLjQ2LDAuNjctMS40OS0wLjA4LTAuOTctMC43bDEuODMtMi4zMmMtMC41Ny0wLjcyLTEuMTMtMS40Mi0xLjY5LTIuMDdjLTAuNTctMC42OCwwLjUtMS4zOCwwLjkyLTAuNzRMMy4xNiwzNC4yOXoiLz4mI3hhOwkJCTwvZz4mI3hhOwkJCTxnIGlkPSJzaGFwZTQwNTQtMTMiIHRyYW5zZm9ybT0idHJhbnNsYXRlKDYuOTMzMTgsLTAuNTgyOTg0KSI+JiN4YTsJCQkJPHRpdGxlIGlkPSJ0aXRsZTQyOTAzIj5TaGVldC40MDU0PC90aXRsZT4mI3hhOwkJCQk8cGF0aCBpZD0icGF0aDQyOTA1IiBpbmtzY2FwZTpjb25uZWN0b3ItY3VydmF0dXJlPSIwIiBzdHlsZT0iZmlsbDojRkZGRkZGOyIgZD0iTTAsMzMuMDdjMC0wLjMsMC4yNi0wLjU1LDAuNTctMC41NSAgICAgIGMwLjMsMCwwLjU0LDAuMjUsMC41NCwwLjU1djQuNTZoMi40OGMwLjg5LDAsMC45MSwxLjIsMCwxLjJIMC41OEMwLjI2LDM4LjgzLDAsMzguNiwwLDM4LjI3VjMzLjA3eiIvPiYjeGE7CQkJPC9nPiYjeGE7CQkJPGcgaWQ9InNoYXBlNDA1NS0xNSIgdHJhbnNmb3JtPSJ0cmFuc2xhdGUoMTEuOTY0OCkiPiYjeGE7CQkJCTx0aXRsZSBpZD0idGl0bGU0MjkwOCI+U2hlZXQuNDA1NTwvdGl0bGU+JiN4YTsJCQkJPHBhdGggaWQ9InBhdGg0MjkxMCIgaW5rc2NhcGU6Y29ubmVjdG9yLWN1cnZhdHVyZT0iMCIgc3R5bGU9ImZpbGw6I0ZGRkZGRjsiIGQ9Ik0wLjI4LDMzLjMxYzAuMjEtMS43NywyLjg4LTIuMDgsNC4xNC0xLjEyICAgICAgYzAuNjIsMC41LTAuMDQsMS4yOS0wLjU5LDAuODljLTAuNjctMC40Mi0yLjItMC42Mi0yLjM5LDAuMzJjLTAuMjUsMS40OSwzLjcxLDAuNjQsMy42NSwzLjA2Yy0wLjA3LDIuMzEtMy40MiwyLjM3LTQuNjcsMS4zMyAgICAgIGMtMC4zLTAuMjUtMC4yOS0wLjY1LTAuMTMtMC44OWMwLjI0LTAuMjQsMC41LTAuMzIsMC44MS0wLjA3YzAuNzUsMC41MSwyLjY3LDAuOSwyLjgtMC40QzMuNzksMzUuMDksMCwzNS45LDAuMjgsMzMuMzF6Ii8+JiN4YTsJCQk8L2c+JiN4YTsJCTwvZz4mI3hhOwkJPGcgaWQ9InNoYXBlNDA1Ni0xNyIgdHJhbnNmb3JtPSJ0cmFuc2xhdGUoNC41NTQ1NiwtNC41NTQ1NikiPiYjeGE7CQkJPHRpdGxlIGlkPSJ0aXRsZTQyOTE0Ij5TaGVldC40MDU2PC90aXRsZT4mI3hhOwkJCTxwYXRoIGlkPSJwYXRoNDI5MTYiIGlua3NjYXBlOmNvbm5lY3Rvci1jdXJ2YXR1cmU9IjAiIHN0eWxlPSJmaWxsOiNDQUQxRDg7IiBkPSJNMjEuNjMsMzcuNjlIMHYxLjE0aDIxLjYzICAgICBjMC42MywwLDEuMTQtMC41MiwxLjE0LTEuMTR2LTEuMTRDMjIuNzcsMzcuMTgsMjIuMjYsMzcuNjksMjEuNjMsMzcuNjl6Ii8+JiN4YTsJCTwvZz4mI3hhOwk8L2c+JiN4YTs8L2c+JiN4YTs8L3N2Zz4=;" vertex="1" parent="WIyWlLk6GJQsqaUBKTNV-1">
          <mxGeometry x="650" y="232.71" width="32" height="36" as="geometry" />
        </mxCell>
        <mxCell id="CJ1JmY6DbRSH0CXdUCkE-15" value="" style="line;strokeWidth=4;html=1;perimeter=backbonePerimeter;points=[];outlineConnect=0;" vertex="1" parent="WIyWlLk6GJQsqaUBKTNV-1">
          <mxGeometry x="360" y="90" width="40" height="10" as="geometry" />
        </mxCell>
        <mxCell id="CJ1JmY6DbRSH0CXdUCkE-16" value="" style="line;strokeWidth=4;html=1;perimeter=backbonePerimeter;points=[];outlineConnect=0;" vertex="1" parent="WIyWlLk6GJQsqaUBKTNV-1">
          <mxGeometry x="250" y="90" width="40" height="10" as="geometry" />
        </mxCell>
      </root>
    </mxGraphModel>
  </diagram>
</mxfile>
